<?xml version="1.0" encoding="utf-8" standalone="no"?>
<!DOCTYPE svg PUBLIC "-//W3C//DTD SVG 1.1//EN"
  "http://www.w3.org/Graphics/SVG/1.1/DTD/svg11.dtd">
<!-- Created with matplotlib (https://matplotlib.org/) -->
<svg height="526.439844pt" version="1.1" viewBox="0 0 612.164375 526.439844" width="612.164375pt" xmlns="http://www.w3.org/2000/svg" xmlns:xlink="http://www.w3.org/1999/xlink">
 <defs>
  <style type="text/css">
*{stroke-linecap:butt;stroke-linejoin:round;}
  </style>
 </defs>
 <g id="figure_1">
  <g id="patch_1">
   <path d="M 0 526.439844 
L 612.164375 526.439844 
L 612.164375 0 
L 0 0 
z
" style="fill:none;"/>
  </g>
  <g id="axes_1">
   <g id="patch_2">
    <path d="M 46.964375 262.472727 
L 300.600739 262.472727 
L 300.600739 64.8 
L 46.964375 64.8 
z
" style="fill:#eaeaf2;"/>
   </g>
   <g id="matplotlib.axis_1">
    <g id="xtick_1">
     <g id="line2d_1">
      <path clip-path="url(#pac7374dcc7)" d="M 52.773728 262.472727 
L 52.773728 64.8 
" style="fill:none;stroke:#ffffff;stroke-linecap:round;"/>
     </g>
    </g>
    <g id="xtick_2">
     <g id="line2d_2">
      <path clip-path="url(#pac7374dcc7)" d="M 95.991167 262.472727 
L 95.991167 64.8 
" style="fill:none;stroke:#ffffff;stroke-linecap:round;"/>
     </g>
    </g>
    <g id="xtick_3">
     <g id="line2d_3">
      <path clip-path="url(#pac7374dcc7)" d="M 139.208606 262.472727 
L 139.208606 64.8 
" style="fill:none;stroke:#ffffff;stroke-linecap:round;"/>
     </g>
    </g>
    <g id="xtick_4">
     <g id="line2d_4">
      <path clip-path="url(#pac7374dcc7)" d="M 182.426045 262.472727 
L 182.426045 64.8 
" style="fill:none;stroke:#ffffff;stroke-linecap:round;"/>
     </g>
    </g>
    <g id="xtick_5">
     <g id="line2d_5">
      <path clip-path="url(#pac7374dcc7)" d="M 225.643483 262.472727 
L 225.643483 64.8 
" style="fill:none;stroke:#ffffff;stroke-linecap:round;"/>
     </g>
    </g>
    <g id="xtick_6">
     <g id="line2d_6">
      <path clip-path="url(#pac7374dcc7)" d="M 268.860922 262.472727 
L 268.860922 64.8 
" style="fill:none;stroke:#ffffff;stroke-linecap:round;"/>
     </g>
    </g>
   </g>
   <g id="matplotlib.axis_2">
    <g id="ytick_1">
     <g id="line2d_7">
      <path clip-path="url(#pac7374dcc7)" d="M 46.964375 253.487603 
L 300.600739 253.487603 
" style="fill:none;stroke:#ffffff;stroke-linecap:round;"/>
     </g>
     <g id="text_1">
      <!-- 0.0 -->
      <defs>
       <path d="M 4.15625 35.296875 
Q 4.15625 48 6.765625 55.734375 
Q 9.375 63.484375 14.515625 67.671875 
Q 19.671875 71.875 27.484375 71.875 
Q 33.25 71.875 37.59375 69.546875 
Q 41.9375 67.234375 44.765625 62.859375 
Q 47.609375 58.5 49.21875 52.21875 
Q 50.828125 45.953125 50.828125 35.296875 
Q 50.828125 22.703125 48.234375 14.96875 
Q 45.65625 7.234375 40.5 3 
Q 35.359375 -1.21875 27.484375 -1.21875 
Q 17.140625 -1.21875 11.234375 6.203125 
Q 4.15625 15.140625 4.15625 35.296875 
z
M 13.1875 35.296875 
Q 13.1875 17.671875 17.3125 11.828125 
Q 21.4375 6 27.484375 6 
Q 33.546875 6 37.671875 11.859375 
Q 41.796875 17.71875 41.796875 35.296875 
Q 41.796875 52.984375 37.671875 58.78125 
Q 33.546875 64.59375 27.390625 64.59375 
Q 21.34375 64.59375 17.71875 59.46875 
Q 13.1875 52.9375 13.1875 35.296875 
z
" id="ArialMT-48"/>
       <path d="M 9.078125 0 
L 9.078125 10.015625 
L 19.09375 10.015625 
L 19.09375 0 
z
" id="ArialMT-46"/>
      </defs>
      <g style="fill:#262626;" transform="translate(22.174375 257.4244)scale(0.11 -0.11)">
       <use xlink:href="#ArialMT-48"/>
       <use x="55.615234" xlink:href="#ArialMT-46"/>
       <use x="83.398438" xlink:href="#ArialMT-48"/>
      </g>
     </g>
    </g>
    <g id="ytick_2">
     <g id="line2d_8">
      <path clip-path="url(#pac7374dcc7)" d="M 46.964375 218.561404 
L 300.600739 218.561404 
" style="fill:none;stroke:#ffffff;stroke-linecap:round;"/>
     </g>
     <g id="text_2">
      <!-- 0.1 -->
      <defs>
       <path d="M 37.25 0 
L 28.46875 0 
L 28.46875 56 
Q 25.296875 52.984375 20.140625 49.953125 
Q 14.984375 46.921875 10.890625 45.40625 
L 10.890625 53.90625 
Q 18.265625 57.375 23.78125 62.296875 
Q 29.296875 67.234375 31.59375 71.875 
L 37.25 71.875 
z
" id="ArialMT-49"/>
      </defs>
      <g style="fill:#262626;" transform="translate(22.174375 222.498201)scale(0.11 -0.11)">
       <use xlink:href="#ArialMT-48"/>
       <use x="55.615234" xlink:href="#ArialMT-46"/>
       <use x="83.398438" xlink:href="#ArialMT-49"/>
      </g>
     </g>
    </g>
    <g id="ytick_3">
     <g id="line2d_9">
      <path clip-path="url(#pac7374dcc7)" d="M 46.964375 183.635205 
L 300.600739 183.635205 
" style="fill:none;stroke:#ffffff;stroke-linecap:round;"/>
     </g>
     <g id="text_3">
      <!-- 0.2 -->
      <defs>
       <path d="M 50.34375 8.453125 
L 50.34375 0 
L 3.03125 0 
Q 2.9375 3.171875 4.046875 6.109375 
Q 5.859375 10.9375 9.828125 15.625 
Q 13.8125 20.3125 21.34375 26.46875 
Q 33.015625 36.03125 37.109375 41.625 
Q 41.21875 47.21875 41.21875 52.203125 
Q 41.21875 57.421875 37.46875 61 
Q 33.734375 64.59375 27.734375 64.59375 
Q 21.390625 64.59375 17.578125 60.78125 
Q 13.765625 56.984375 13.71875 50.25 
L 4.6875 51.171875 
Q 5.609375 61.28125 11.65625 66.578125 
Q 17.71875 71.875 27.9375 71.875 
Q 38.234375 71.875 44.234375 66.15625 
Q 50.25 60.453125 50.25 52 
Q 50.25 47.703125 48.484375 43.546875 
Q 46.734375 39.40625 42.65625 34.8125 
Q 38.578125 30.21875 29.109375 22.21875 
Q 21.1875 15.578125 18.9375 13.203125 
Q 16.703125 10.84375 15.234375 8.453125 
z
" id="ArialMT-50"/>
      </defs>
      <g style="fill:#262626;" transform="translate(22.174375 187.572002)scale(0.11 -0.11)">
       <use xlink:href="#ArialMT-48"/>
       <use x="55.615234" xlink:href="#ArialMT-46"/>
       <use x="83.398438" xlink:href="#ArialMT-50"/>
      </g>
     </g>
    </g>
    <g id="ytick_4">
     <g id="line2d_10">
      <path clip-path="url(#pac7374dcc7)" d="M 46.964375 148.709005 
L 300.600739 148.709005 
" style="fill:none;stroke:#ffffff;stroke-linecap:round;"/>
     </g>
     <g id="text_4">
      <!-- 0.3 -->
      <defs>
       <path d="M 4.203125 18.890625 
L 12.984375 20.0625 
Q 14.5 12.59375 18.140625 9.296875 
Q 21.78125 6 27 6 
Q 33.203125 6 37.46875 10.296875 
Q 41.75 14.59375 41.75 20.953125 
Q 41.75 27 37.796875 30.921875 
Q 33.84375 34.859375 27.734375 34.859375 
Q 25.25 34.859375 21.53125 33.890625 
L 22.515625 41.609375 
Q 23.390625 41.5 23.921875 41.5 
Q 29.546875 41.5 34.03125 44.421875 
Q 38.53125 47.359375 38.53125 53.46875 
Q 38.53125 58.296875 35.25 61.46875 
Q 31.984375 64.65625 26.8125 64.65625 
Q 21.6875 64.65625 18.265625 61.421875 
Q 14.84375 58.203125 13.875 51.765625 
L 5.078125 53.328125 
Q 6.6875 62.15625 12.390625 67.015625 
Q 18.109375 71.875 26.609375 71.875 
Q 32.46875 71.875 37.390625 69.359375 
Q 42.328125 66.84375 44.9375 62.5 
Q 47.5625 58.15625 47.5625 53.265625 
Q 47.5625 48.640625 45.0625 44.828125 
Q 42.578125 41.015625 37.703125 38.765625 
Q 44.046875 37.3125 47.5625 32.6875 
Q 51.078125 28.078125 51.078125 21.140625 
Q 51.078125 11.765625 44.234375 5.25 
Q 37.40625 -1.265625 26.953125 -1.265625 
Q 17.53125 -1.265625 11.296875 4.34375 
Q 5.078125 9.96875 4.203125 18.890625 
z
" id="ArialMT-51"/>
      </defs>
      <g style="fill:#262626;" transform="translate(22.174375 152.645802)scale(0.11 -0.11)">
       <use xlink:href="#ArialMT-48"/>
       <use x="55.615234" xlink:href="#ArialMT-46"/>
       <use x="83.398438" xlink:href="#ArialMT-51"/>
      </g>
     </g>
    </g>
    <g id="ytick_5">
     <g id="line2d_11">
      <path clip-path="url(#pac7374dcc7)" d="M 46.964375 113.782806 
L 300.600739 113.782806 
" style="fill:none;stroke:#ffffff;stroke-linecap:round;"/>
     </g>
     <g id="text_5">
      <!-- 0.4 -->
      <defs>
       <path d="M 32.328125 0 
L 32.328125 17.140625 
L 1.265625 17.140625 
L 1.265625 25.203125 
L 33.9375 71.578125 
L 41.109375 71.578125 
L 41.109375 25.203125 
L 50.78125 25.203125 
L 50.78125 17.140625 
L 41.109375 17.140625 
L 41.109375 0 
z
M 32.328125 25.203125 
L 32.328125 57.46875 
L 9.90625 25.203125 
z
" id="ArialMT-52"/>
      </defs>
      <g style="fill:#262626;" transform="translate(22.174375 117.719603)scale(0.11 -0.11)">
       <use xlink:href="#ArialMT-48"/>
       <use x="55.615234" xlink:href="#ArialMT-46"/>
       <use x="83.398438" xlink:href="#ArialMT-52"/>
      </g>
     </g>
    </g>
    <g id="ytick_6">
     <g id="line2d_12">
      <path clip-path="url(#pac7374dcc7)" d="M 46.964375 78.856607 
L 300.600739 78.856607 
" style="fill:none;stroke:#ffffff;stroke-linecap:round;"/>
     </g>
     <g id="text_6">
      <!-- 0.5 -->
      <defs>
       <path d="M 4.15625 18.75 
L 13.375 19.53125 
Q 14.40625 12.796875 18.140625 9.390625 
Q 21.875 6 27.15625 6 
Q 33.5 6 37.890625 10.78125 
Q 42.28125 15.578125 42.28125 23.484375 
Q 42.28125 31 38.0625 35.34375 
Q 33.84375 39.703125 27 39.703125 
Q 22.75 39.703125 19.328125 37.765625 
Q 15.921875 35.84375 13.96875 32.765625 
L 5.71875 33.84375 
L 12.640625 70.609375 
L 48.25 70.609375 
L 48.25 62.203125 
L 19.671875 62.203125 
L 15.828125 42.96875 
Q 22.265625 47.46875 29.34375 47.46875 
Q 38.71875 47.46875 45.15625 40.96875 
Q 51.609375 34.46875 51.609375 24.265625 
Q 51.609375 14.546875 45.953125 7.46875 
Q 39.0625 -1.21875 27.15625 -1.21875 
Q 17.390625 -1.21875 11.203125 4.25 
Q 5.03125 9.71875 4.15625 18.75 
z
" id="ArialMT-53"/>
      </defs>
      <g style="fill:#262626;" transform="translate(22.174375 82.793404)scale(0.11 -0.11)">
       <use xlink:href="#ArialMT-48"/>
       <use x="55.615234" xlink:href="#ArialMT-46"/>
       <use x="83.398438" xlink:href="#ArialMT-53"/>
      </g>
     </g>
    </g>
    <g id="text_7">
     <!-- values -->
     <defs>
      <path d="M 21 0 
L 1.265625 51.859375 
L 10.546875 51.859375 
L 21.6875 20.796875 
Q 23.484375 15.765625 25 10.359375 
Q 26.171875 14.453125 28.265625 20.21875 
L 39.796875 51.859375 
L 48.828125 51.859375 
L 29.203125 0 
z
" id="ArialMT-118"/>
      <path d="M 40.4375 6.390625 
Q 35.546875 2.25 31.03125 0.53125 
Q 26.515625 -1.171875 21.34375 -1.171875 
Q 12.796875 -1.171875 8.203125 3 
Q 3.609375 7.171875 3.609375 13.671875 
Q 3.609375 17.484375 5.34375 20.625 
Q 7.078125 23.78125 9.890625 25.6875 
Q 12.703125 27.59375 16.21875 28.5625 
Q 18.796875 29.25 24.03125 29.890625 
Q 34.671875 31.15625 39.703125 32.90625 
Q 39.75 34.71875 39.75 35.203125 
Q 39.75 40.578125 37.25 42.78125 
Q 33.890625 45.75 27.25 45.75 
Q 21.046875 45.75 18.09375 43.578125 
Q 15.140625 41.40625 13.71875 35.890625 
L 5.125 37.0625 
Q 6.296875 42.578125 8.984375 45.96875 
Q 11.671875 49.359375 16.75 51.1875 
Q 21.828125 53.03125 28.515625 53.03125 
Q 35.15625 53.03125 39.296875 51.46875 
Q 43.453125 49.90625 45.40625 47.53125 
Q 47.359375 45.171875 48.140625 41.546875 
Q 48.578125 39.3125 48.578125 33.453125 
L 48.578125 21.734375 
Q 48.578125 9.46875 49.140625 6.21875 
Q 49.703125 2.984375 51.375 0 
L 42.1875 0 
Q 40.828125 2.734375 40.4375 6.390625 
z
M 39.703125 26.03125 
Q 34.90625 24.078125 25.34375 22.703125 
Q 19.921875 21.921875 17.671875 20.9375 
Q 15.4375 19.96875 14.203125 18.09375 
Q 12.984375 16.21875 12.984375 13.921875 
Q 12.984375 10.40625 15.640625 8.0625 
Q 18.3125 5.71875 23.4375 5.71875 
Q 28.515625 5.71875 32.46875 7.9375 
Q 36.421875 10.15625 38.28125 14.015625 
Q 39.703125 17 39.703125 22.796875 
z
" id="ArialMT-97"/>
      <path d="M 6.390625 0 
L 6.390625 71.578125 
L 15.1875 71.578125 
L 15.1875 0 
z
" id="ArialMT-108"/>
      <path d="M 40.578125 0 
L 40.578125 7.625 
Q 34.515625 -1.171875 24.125 -1.171875 
Q 19.53125 -1.171875 15.546875 0.578125 
Q 11.578125 2.34375 9.640625 5 
Q 7.71875 7.671875 6.9375 11.53125 
Q 6.390625 14.109375 6.390625 19.734375 
L 6.390625 51.859375 
L 15.1875 51.859375 
L 15.1875 23.09375 
Q 15.1875 16.21875 15.71875 13.8125 
Q 16.546875 10.359375 19.234375 8.375 
Q 21.921875 6.390625 25.875 6.390625 
Q 29.828125 6.390625 33.296875 8.421875 
Q 36.765625 10.453125 38.203125 13.9375 
Q 39.65625 17.4375 39.65625 24.078125 
L 39.65625 51.859375 
L 48.4375 51.859375 
L 48.4375 0 
z
" id="ArialMT-117"/>
      <path d="M 42.09375 16.703125 
L 51.171875 15.578125 
Q 49.03125 7.625 43.21875 3.21875 
Q 37.40625 -1.171875 28.375 -1.171875 
Q 17 -1.171875 10.328125 5.828125 
Q 3.65625 12.84375 3.65625 25.484375 
Q 3.65625 38.578125 10.390625 45.796875 
Q 17.140625 53.03125 27.875 53.03125 
Q 38.28125 53.03125 44.875 45.953125 
Q 51.46875 38.875 51.46875 26.03125 
Q 51.46875 25.25 51.421875 23.6875 
L 12.75 23.6875 
Q 13.234375 15.140625 17.578125 10.59375 
Q 21.921875 6.0625 28.421875 6.0625 
Q 33.25 6.0625 36.671875 8.59375 
Q 40.09375 11.140625 42.09375 16.703125 
z
M 13.234375 30.90625 
L 42.1875 30.90625 
Q 41.609375 37.453125 38.875 40.71875 
Q 34.671875 45.796875 27.984375 45.796875 
Q 21.921875 45.796875 17.796875 41.75 
Q 13.671875 37.703125 13.234375 30.90625 
z
" id="ArialMT-101"/>
      <path d="M 3.078125 15.484375 
L 11.765625 16.84375 
Q 12.5 11.625 15.84375 8.84375 
Q 19.1875 6.0625 25.203125 6.0625 
Q 31.25 6.0625 34.171875 8.515625 
Q 37.109375 10.984375 37.109375 14.3125 
Q 37.109375 17.28125 34.515625 19 
Q 32.71875 20.171875 25.53125 21.96875 
Q 15.875 24.421875 12.140625 26.203125 
Q 8.40625 27.984375 6.46875 31.125 
Q 4.546875 34.28125 4.546875 38.09375 
Q 4.546875 41.546875 6.125 44.5 
Q 7.71875 47.46875 10.453125 49.421875 
Q 12.5 50.921875 16.03125 51.96875 
Q 19.578125 53.03125 23.640625 53.03125 
Q 29.734375 53.03125 34.34375 51.265625 
Q 38.96875 49.515625 41.15625 46.5 
Q 43.359375 43.5 44.1875 38.484375 
L 35.59375 37.3125 
Q 35.015625 41.3125 32.203125 43.546875 
Q 29.390625 45.796875 24.265625 45.796875 
Q 18.21875 45.796875 15.625 43.796875 
Q 13.03125 41.796875 13.03125 39.109375 
Q 13.03125 37.40625 14.109375 36.03125 
Q 15.1875 34.625 17.484375 33.6875 
Q 18.796875 33.203125 25.25 31.453125 
Q 34.578125 28.953125 38.25 27.359375 
Q 41.9375 25.78125 44.03125 22.75 
Q 46.140625 19.734375 46.140625 15.234375 
Q 46.140625 10.84375 43.578125 6.953125 
Q 41.015625 3.078125 36.171875 0.953125 
Q 31.34375 -1.171875 25.25 -1.171875 
Q 15.140625 -1.171875 9.84375 3.03125 
Q 4.546875 7.234375 3.078125 15.484375 
z
" id="ArialMT-115"/>
     </defs>
     <g style="fill:#262626;" transform="translate(15.789375 180.979176)rotate(-90)scale(0.12 -0.12)">
      <use xlink:href="#ArialMT-118"/>
      <use x="50" xlink:href="#ArialMT-97"/>
      <use x="105.615234" xlink:href="#ArialMT-108"/>
      <use x="127.832031" xlink:href="#ArialMT-117"/>
      <use x="183.447266" xlink:href="#ArialMT-101"/>
      <use x="239.0625" xlink:href="#ArialMT-115"/>
     </g>
    </g>
   </g>
   <g id="PathCollection_1">
    <defs>
     <path d="M -3 0 
L 3 0 
M 0 3 
L 0 -3 
" id="mdcc6c97c00" style="stroke:#ffa500;stroke-width:1.5;"/>
    </defs>
    <g clip-path="url(#pac7374dcc7)">
     <use style="fill:#ffa500;stroke:#ffa500;stroke-width:1.5;" x="61.417216" xlink:href="#mdcc6c97c00" y="244.955412"/>
     <use style="fill:#ffa500;stroke:#ffa500;stroke-width:1.5;" x="66.003556" xlink:href="#mdcc6c97c00" y="243.617813"/>
     <use style="fill:#ffa500;stroke:#ffa500;stroke-width:1.5;" x="70.589897" xlink:href="#mdcc6c97c00" y="242.288905"/>
     <use style="fill:#ffa500;stroke:#ffa500;stroke-width:1.5;" x="75.176237" xlink:href="#mdcc6c97c00" y="240.968752"/>
     <use style="fill:#ffa500;stroke:#ffa500;stroke-width:1.5;" x="79.762578" xlink:href="#mdcc6c97c00" y="239.657514"/>
     <use style="fill:#ffa500;stroke:#ffa500;stroke-width:1.5;" x="84.348918" xlink:href="#mdcc6c97c00" y="238.355237"/>
     <use style="fill:#ffa500;stroke:#ffa500;stroke-width:1.5;" x="88.935259" xlink:href="#mdcc6c97c00" y="237.06201"/>
     <use style="fill:#ffa500;stroke:#ffa500;stroke-width:1.5;" x="93.521599" xlink:href="#mdcc6c97c00" y="235.777928"/>
     <use style="fill:#ffa500;stroke:#ffa500;stroke-width:1.5;" x="98.107939" xlink:href="#mdcc6c97c00" y="234.503015"/>
     <use style="fill:#ffa500;stroke:#ffa500;stroke-width:1.5;" x="102.69428" xlink:href="#mdcc6c97c00" y="233.237279"/>
     <use style="fill:#ffa500;stroke:#ffa500;stroke-width:1.5;" x="107.28062" xlink:href="#mdcc6c97c00" y="231.980655"/>
     <use style="fill:#ffa500;stroke:#ffa500;stroke-width:1.5;" x="111.866961" xlink:href="#mdcc6c97c00" y="230.733105"/>
     <use style="fill:#ffa500;stroke:#ffa500;stroke-width:1.5;" x="116.453301" xlink:href="#mdcc6c97c00" y="229.49443"/>
     <use style="fill:#ffa500;stroke:#ffa500;stroke-width:1.5;" x="121.039642" xlink:href="#mdcc6c97c00" y="228.264303"/>
     <use style="fill:#ffa500;stroke:#ffa500;stroke-width:1.5;" x="125.625982" xlink:href="#mdcc6c97c00" y="227.042255"/>
     <use style="fill:#ffa500;stroke:#ffa500;stroke-width:1.5;" x="130.212323" xlink:href="#mdcc6c97c00" y="225.827595"/>
     <use style="fill:#ffa500;stroke:#ffa500;stroke-width:1.5;" x="134.798663" xlink:href="#mdcc6c97c00" y="224.619249"/>
     <use style="fill:#ffa500;stroke:#ffa500;stroke-width:1.5;" x="139.385003" xlink:href="#mdcc6c97c00" y="223.415825"/>
     <use style="fill:#ffa500;stroke:#ffa500;stroke-width:1.5;" x="143.971344" xlink:href="#mdcc6c97c00" y="222.215018"/>
     <use style="fill:#ffa500;stroke:#ffa500;stroke-width:1.5;" x="148.557684" xlink:href="#mdcc6c97c00" y="221.01386"/>
     <use style="fill:#ffa500;stroke:#ffa500;stroke-width:1.5;" x="153.144025" xlink:href="#mdcc6c97c00" y="219.807773"/>
     <use style="fill:#ffa500;stroke:#ffa500;stroke-width:1.5;" x="157.730365" xlink:href="#mdcc6c97c00" y="218.590592"/>
     <use style="fill:#ffa500;stroke:#ffa500;stroke-width:1.5;" x="162.316706" xlink:href="#mdcc6c97c00" y="217.353117"/>
     <use style="fill:#ffa500;stroke:#ffa500;stroke-width:1.5;" x="166.903046" xlink:href="#mdcc6c97c00" y="216.082697"/>
     <use style="fill:#ffa500;stroke:#ffa500;stroke-width:1.5;" x="171.489387" xlink:href="#mdcc6c97c00" y="214.761264"/>
     <use style="fill:#ffa500;stroke:#ffa500;stroke-width:1.5;" x="176.075727" xlink:href="#mdcc6c97c00" y="213.363809"/>
     <use style="fill:#ffa500;stroke:#ffa500;stroke-width:1.5;" x="180.662067" xlink:href="#mdcc6c97c00" y="211.856455"/>
     <use style="fill:#ffa500;stroke:#ffa500;stroke-width:1.5;" x="185.248408" xlink:href="#mdcc6c97c00" y="210.194672"/>
     <use style="fill:#ffa500;stroke:#ffa500;stroke-width:1.5;" x="189.834748" xlink:href="#mdcc6c97c00" y="208.322866"/>
     <use style="fill:#ffa500;stroke:#ffa500;stroke-width:1.5;" x="194.421089" xlink:href="#mdcc6c97c00" y="206.176148"/>
     <use style="fill:#ffa500;stroke:#ffa500;stroke-width:1.5;" x="199.007429" xlink:href="#mdcc6c97c00" y="203.685851"/>
     <use style="fill:#ffa500;stroke:#ffa500;stroke-width:1.5;" x="203.59377" xlink:href="#mdcc6c97c00" y="200.788923"/>
     <use style="fill:#ffa500;stroke:#ffa500;stroke-width:1.5;" x="208.18011" xlink:href="#mdcc6c97c00" y="197.438435"/>
     <use style="fill:#ffa500;stroke:#ffa500;stroke-width:1.5;" x="212.766451" xlink:href="#mdcc6c97c00" y="193.611747"/>
     <use style="fill:#ffa500;stroke:#ffa500;stroke-width:1.5;" x="217.352791" xlink:href="#mdcc6c97c00" y="189.311874"/>
     <use style="fill:#ffa500;stroke:#ffa500;stroke-width:1.5;" x="221.939131" xlink:href="#mdcc6c97c00" y="184.561422"/>
     <use style="fill:#ffa500;stroke:#ffa500;stroke-width:1.5;" x="226.525472" xlink:href="#mdcc6c97c00" y="179.393015"/>
     <use style="fill:#ffa500;stroke:#ffa500;stroke-width:1.5;" x="231.111812" xlink:href="#mdcc6c97c00" y="173.839249"/>
     <use style="fill:#ffa500;stroke:#ffa500;stroke-width:1.5;" x="235.698153" xlink:href="#mdcc6c97c00" y="167.925726"/>
     <use style="fill:#ffa500;stroke:#ffa500;stroke-width:1.5;" x="240.284493" xlink:href="#mdcc6c97c00" y="161.667323"/>
     <use style="fill:#ffa500;stroke:#ffa500;stroke-width:1.5;" x="244.870834" xlink:href="#mdcc6c97c00" y="155.067054"/>
     <use style="fill:#ffa500;stroke:#ffa500;stroke-width:1.5;" x="249.457174" xlink:href="#mdcc6c97c00" y="148.116736"/>
     <use style="fill:#ffa500;stroke:#ffa500;stroke-width:1.5;" x="254.043515" xlink:href="#mdcc6c97c00" y="140.798188"/>
     <use style="fill:#ffa500;stroke:#ffa500;stroke-width:1.5;" x="258.629855" xlink:href="#mdcc6c97c00" y="133.085366"/>
     <use style="fill:#ffa500;stroke:#ffa500;stroke-width:1.5;" x="263.216195" xlink:href="#mdcc6c97c00" y="124.946463"/>
     <use style="fill:#ffa500;stroke:#ffa500;stroke-width:1.5;" x="267.802536" xlink:href="#mdcc6c97c00" y="116.347033"/>
     <use style="fill:#ffa500;stroke:#ffa500;stroke-width:1.5;" x="272.388876" xlink:href="#mdcc6c97c00" y="107.252442"/>
     <use style="fill:#ffa500;stroke:#ffa500;stroke-width:1.5;" x="276.975217" xlink:href="#mdcc6c97c00" y="97.631286"/>
     <use style="fill:#ffa500;stroke:#ffa500;stroke-width:1.5;" x="281.561557" xlink:href="#mdcc6c97c00" y="87.458636"/>
     <use style="fill:#ffa500;stroke:#ffa500;stroke-width:1.5;" x="286.147898" xlink:href="#mdcc6c97c00" y="76.718238"/>
    </g>
   </g>
   <g id="line2d_13">
    <path clip-path="url(#pac7374dcc7)" d="M 61.417216 253.487603 
L 66.003556 253.487603 
L 70.589897 253.487603 
L 75.176237 253.487603 
L 79.762578 253.487601 
L 84.348918 253.487591 
L 88.935259 253.487548 
L 93.521599 253.487389 
L 98.107939 253.486883 
L 102.69428 253.48546 
L 107.28062 253.481878 
L 111.866961 253.473691 
L 116.453301 253.456501 
L 121.039642 253.42304 
L 125.625982 253.362148 
L 130.212323 253.257805 
L 134.798663 253.088387 
L 139.385003 252.82631 
L 143.971344 252.438194 
L 148.557684 251.885592 
L 153.144025 251.126261 
L 157.730365 250.115884 
L 162.316706 248.81005 
L 166.903046 247.166334 
L 171.489387 245.146256 
L 176.075727 242.716971 
L 180.662067 239.852564 
L 185.248408 236.534878 
L 189.834748 232.753859 
L 194.421089 228.507458 
L 199.007429 223.801136 
L 203.59377 218.647076 
L 208.18011 213.063179 
L 212.766451 207.071947 
L 217.352791 200.699334 
L 221.939131 193.973624 
L 226.525472 186.924413 
L 231.111812 179.581691 
L 235.698153 171.975086 
L 240.284493 164.133245 
L 244.870834 156.083367 
L 249.457174 147.850873 
L 254.043515 139.459188 
L 258.629855 130.929636 
L 263.216195 122.281412 
L 267.802536 113.531623 
L 272.388876 104.695375 
L 276.975217 95.785898 
L 281.561557 86.814691 
L 286.147898 77.791676 
" style="fill:none;stroke:#4c72b0;stroke-linecap:round;stroke-width:1.5;"/>
   </g>
   <g id="patch_3">
    <path d="M 46.964375 262.472727 
L 46.964375 64.8 
" style="fill:none;stroke:#ffffff;stroke-linecap:square;stroke-linejoin:miter;stroke-width:1.25;"/>
   </g>
   <g id="patch_4">
    <path d="M 300.600739 262.472727 
L 300.600739 64.8 
" style="fill:none;stroke:#ffffff;stroke-linecap:square;stroke-linejoin:miter;stroke-width:1.25;"/>
   </g>
   <g id="patch_5">
    <path d="M 46.964375 262.472727 
L 300.600739 262.472727 
" style="fill:none;stroke:#ffffff;stroke-linecap:square;stroke-linejoin:miter;stroke-width:1.25;"/>
   </g>
   <g id="patch_6">
    <path d="M 46.964375 64.8 
L 300.600739 64.8 
" style="fill:none;stroke:#ffffff;stroke-linecap:square;stroke-linejoin:miter;stroke-width:1.25;"/>
   </g>
   <g id="text_8">
    <!-- standard -->
    <defs>
     <path d="M 25.78125 7.859375 
L 27.046875 0.09375 
Q 23.34375 -0.6875 20.40625 -0.6875 
Q 15.625 -0.6875 12.984375 0.828125 
Q 10.359375 2.34375 9.28125 4.8125 
Q 8.203125 7.28125 8.203125 15.1875 
L 8.203125 45.015625 
L 1.765625 45.015625 
L 1.765625 51.859375 
L 8.203125 51.859375 
L 8.203125 64.703125 
L 16.9375 69.96875 
L 16.9375 51.859375 
L 25.78125 51.859375 
L 25.78125 45.015625 
L 16.9375 45.015625 
L 16.9375 14.703125 
Q 16.9375 10.9375 17.40625 9.859375 
Q 17.875 8.796875 18.921875 8.15625 
Q 19.96875 7.515625 21.921875 7.515625 
Q 23.390625 7.515625 25.78125 7.859375 
z
" id="ArialMT-116"/>
     <path d="M 6.59375 0 
L 6.59375 51.859375 
L 14.5 51.859375 
L 14.5 44.484375 
Q 20.21875 53.03125 31 53.03125 
Q 35.6875 53.03125 39.625 51.34375 
Q 43.5625 49.65625 45.515625 46.921875 
Q 47.46875 44.1875 48.25 40.4375 
Q 48.734375 37.984375 48.734375 31.890625 
L 48.734375 0 
L 39.9375 0 
L 39.9375 31.546875 
Q 39.9375 36.921875 38.90625 39.578125 
Q 37.890625 42.234375 35.28125 43.8125 
Q 32.671875 45.40625 29.15625 45.40625 
Q 23.53125 45.40625 19.453125 41.84375 
Q 15.375 38.28125 15.375 28.328125 
L 15.375 0 
z
" id="ArialMT-110"/>
     <path d="M 40.234375 0 
L 40.234375 6.546875 
Q 35.296875 -1.171875 25.734375 -1.171875 
Q 19.53125 -1.171875 14.328125 2.25 
Q 9.125 5.671875 6.265625 11.796875 
Q 3.421875 17.921875 3.421875 25.875 
Q 3.421875 33.640625 6 39.96875 
Q 8.59375 46.296875 13.765625 49.65625 
Q 18.953125 53.03125 25.34375 53.03125 
Q 30.03125 53.03125 33.6875 51.046875 
Q 37.359375 49.078125 39.65625 45.90625 
L 39.65625 71.578125 
L 48.390625 71.578125 
L 48.390625 0 
z
M 12.453125 25.875 
Q 12.453125 15.921875 16.640625 10.984375 
Q 20.84375 6.0625 26.5625 6.0625 
Q 32.328125 6.0625 36.34375 10.765625 
Q 40.375 15.484375 40.375 25.140625 
Q 40.375 35.796875 36.265625 40.765625 
Q 32.171875 45.75 26.171875 45.75 
Q 20.3125 45.75 16.375 40.96875 
Q 12.453125 36.1875 12.453125 25.875 
z
" id="ArialMT-100"/>
     <path d="M 6.5 0 
L 6.5 51.859375 
L 14.40625 51.859375 
L 14.40625 44 
Q 17.4375 49.515625 20 51.265625 
Q 22.5625 53.03125 25.640625 53.03125 
Q 30.078125 53.03125 34.671875 50.203125 
L 31.640625 42.046875 
Q 28.421875 43.953125 25.203125 43.953125 
Q 22.3125 43.953125 20.015625 42.21875 
Q 17.71875 40.484375 16.75 37.40625 
Q 15.28125 32.71875 15.28125 27.15625 
L 15.28125 0 
z
" id="ArialMT-114"/>
    </defs>
    <g style="fill:#262626;" transform="translate(150.435057 58.8)scale(0.12 -0.12)">
     <use xlink:href="#ArialMT-115"/>
     <use x="50" xlink:href="#ArialMT-116"/>
     <use x="77.783203" xlink:href="#ArialMT-97"/>
     <use x="133.398438" xlink:href="#ArialMT-110"/>
     <use x="189.013672" xlink:href="#ArialMT-100"/>
     <use x="244.628906" xlink:href="#ArialMT-97"/>
     <use x="300.244141" xlink:href="#ArialMT-114"/>
     <use x="333.544922" xlink:href="#ArialMT-100"/>
    </g>
   </g>
  </g>
  <g id="axes_2">
   <g id="patch_7">
    <path d="M 351.328011 262.472727 
L 604.964375 262.472727 
L 604.964375 64.8 
L 351.328011 64.8 
z
" style="fill:#eaeaf2;"/>
   </g>
   <g id="matplotlib.axis_3">
    <g id="xtick_7">
     <g id="line2d_14">
      <path clip-path="url(#p671fb8749c)" d="M 357.137365 262.472727 
L 357.137365 64.8 
" style="fill:none;stroke:#ffffff;stroke-linecap:round;"/>
     </g>
    </g>
    <g id="xtick_8">
     <g id="line2d_15">
      <path clip-path="url(#p671fb8749c)" d="M 400.354803 262.472727 
L 400.354803 64.8 
" style="fill:none;stroke:#ffffff;stroke-linecap:round;"/>
     </g>
    </g>
    <g id="xtick_9">
     <g id="line2d_16">
      <path clip-path="url(#p671fb8749c)" d="M 443.572242 262.472727 
L 443.572242 64.8 
" style="fill:none;stroke:#ffffff;stroke-linecap:round;"/>
     </g>
    </g>
    <g id="xtick_10">
     <g id="line2d_17">
      <path clip-path="url(#p671fb8749c)" d="M 486.789681 262.472727 
L 486.789681 64.8 
" style="fill:none;stroke:#ffffff;stroke-linecap:round;"/>
     </g>
    </g>
    <g id="xtick_11">
     <g id="line2d_18">
      <path clip-path="url(#p671fb8749c)" d="M 530.00712 262.472727 
L 530.00712 64.8 
" style="fill:none;stroke:#ffffff;stroke-linecap:round;"/>
     </g>
    </g>
    <g id="xtick_12">
     <g id="line2d_19">
      <path clip-path="url(#p671fb8749c)" d="M 573.224559 262.472727 
L 573.224559 64.8 
" style="fill:none;stroke:#ffffff;stroke-linecap:round;"/>
     </g>
    </g>
   </g>
   <g id="matplotlib.axis_4">
    <g id="ytick_7">
     <g id="line2d_20">
      <path clip-path="url(#p671fb8749c)" d="M 351.328011 250.671453 
L 604.964375 250.671453 
" style="fill:none;stroke:#ffffff;stroke-linecap:round;"/>
     </g>
    </g>
    <g id="ytick_8">
     <g id="line2d_21">
      <path clip-path="url(#p671fb8749c)" d="M 351.328011 215.923185 
L 604.964375 215.923185 
" style="fill:none;stroke:#ffffff;stroke-linecap:round;"/>
     </g>
    </g>
    <g id="ytick_9">
     <g id="line2d_22">
      <path clip-path="url(#p671fb8749c)" d="M 351.328011 181.174917 
L 604.964375 181.174917 
" style="fill:none;stroke:#ffffff;stroke-linecap:round;"/>
     </g>
    </g>
    <g id="ytick_10">
     <g id="line2d_23">
      <path clip-path="url(#p671fb8749c)" d="M 351.328011 146.426649 
L 604.964375 146.426649 
" style="fill:none;stroke:#ffffff;stroke-linecap:round;"/>
     </g>
    </g>
    <g id="ytick_11">
     <g id="line2d_24">
      <path clip-path="url(#p671fb8749c)" d="M 351.328011 111.678381 
L 604.964375 111.678381 
" style="fill:none;stroke:#ffffff;stroke-linecap:round;"/>
     </g>
    </g>
    <g id="ytick_12">
     <g id="line2d_25">
      <path clip-path="url(#p671fb8749c)" d="M 351.328011 76.930113 
L 604.964375 76.930113 
" style="fill:none;stroke:#ffffff;stroke-linecap:round;"/>
     </g>
    </g>
   </g>
   <g id="PathCollection_2">
    <defs>
     <path d="M -3 0 
L 3 0 
M 0 3 
L 0 -3 
" id="m9d1641b863" style="stroke:#008000;stroke-width:1.5;"/>
    </defs>
    <g clip-path="url(#p671fb8749c)">
     <use style="fill:#008000;stroke:#008000;stroke-width:1.5;" x="365.780852" xlink:href="#m9d1641b863" y="250.569432"/>
     <use style="fill:#008000;stroke:#008000;stroke-width:1.5;" x="370.367193" xlink:href="#m9d1641b863" y="250.335226"/>
     <use style="fill:#008000;stroke:#008000;stroke-width:1.5;" x="374.953533" xlink:href="#m9d1641b863" y="250.132665"/>
     <use style="fill:#008000;stroke:#008000;stroke-width:1.5;" x="379.539874" xlink:href="#m9d1641b863" y="249.961071"/>
     <use style="fill:#008000;stroke:#008000;stroke-width:1.5;" x="384.126214" xlink:href="#m9d1641b863" y="249.819469"/>
     <use style="fill:#008000;stroke:#008000;stroke-width:1.5;" x="388.712555" xlink:href="#m9d1641b863" y="249.706396"/>
     <use style="fill:#008000;stroke:#008000;stroke-width:1.5;" x="393.298895" xlink:href="#m9d1641b863" y="249.62001"/>
     <use style="fill:#008000;stroke:#008000;stroke-width:1.5;" x="397.885235" xlink:href="#m9d1641b863" y="249.557516"/>
     <use style="fill:#008000;stroke:#008000;stroke-width:1.5;" x="402.471576" xlink:href="#m9d1641b863" y="249.515505"/>
     <use style="fill:#008000;stroke:#008000;stroke-width:1.5;" x="407.057916" xlink:href="#m9d1641b863" y="249.489516"/>
     <use style="fill:#008000;stroke:#008000;stroke-width:1.5;" x="411.644257" xlink:href="#m9d1641b863" y="249.474025"/>
     <use style="fill:#008000;stroke:#008000;stroke-width:1.5;" x="416.230597" xlink:href="#m9d1641b863" y="249.462047"/>
     <use style="fill:#008000;stroke:#008000;stroke-width:1.5;" x="420.816938" xlink:href="#m9d1641b863" y="249.44514"/>
     <use style="fill:#008000;stroke:#008000;stroke-width:1.5;" x="425.403278" xlink:href="#m9d1641b863" y="249.412702"/>
     <use style="fill:#008000;stroke:#008000;stroke-width:1.5;" x="429.989619" xlink:href="#m9d1641b863" y="249.352068"/>
     <use style="fill:#008000;stroke:#008000;stroke-width:1.5;" x="434.575959" xlink:href="#m9d1641b863" y="249.248054"/>
     <use style="fill:#008000;stroke:#008000;stroke-width:1.5;" x="439.162299" xlink:href="#m9d1641b863" y="249.082346"/>
     <use style="fill:#008000;stroke:#008000;stroke-width:1.5;" x="443.74864" xlink:href="#m9d1641b863" y="248.833376"/>
     <use style="fill:#008000;stroke:#008000;stroke-width:1.5;" x="448.33498" xlink:href="#m9d1641b863" y="248.475906"/>
     <use style="fill:#008000;stroke:#008000;stroke-width:1.5;" x="452.921321" xlink:href="#m9d1641b863" y="247.980767"/>
     <use style="fill:#008000;stroke:#008000;stroke-width:1.5;" x="457.507661" xlink:href="#m9d1641b863" y="247.314675"/>
     <use style="fill:#008000;stroke:#008000;stroke-width:1.5;" x="462.094002" xlink:href="#m9d1641b863" y="246.440341"/>
     <use style="fill:#008000;stroke:#008000;stroke-width:1.5;" x="466.680342" xlink:href="#m9d1641b863" y="245.316934"/>
     <use style="fill:#008000;stroke:#008000;stroke-width:1.5;" x="471.266683" xlink:href="#m9d1641b863" y="243.900901"/>
     <use style="fill:#008000;stroke:#008000;stroke-width:1.5;" x="475.853023" xlink:href="#m9d1641b863" y="242.146886"/>
     <use style="fill:#008000;stroke:#008000;stroke-width:1.5;" x="480.439363" xlink:href="#m9d1641b863" y="240.009996"/>
     <use style="fill:#008000;stroke:#008000;stroke-width:1.5;" x="485.025704" xlink:href="#m9d1641b863" y="237.447574"/>
     <use style="fill:#008000;stroke:#008000;stroke-width:1.5;" x="489.612044" xlink:href="#m9d1641b863" y="234.421611"/>
     <use style="fill:#008000;stroke:#008000;stroke-width:1.5;" x="494.198385" xlink:href="#m9d1641b863" y="230.90153"/>
     <use style="fill:#008000;stroke:#008000;stroke-width:1.5;" x="498.784725" xlink:href="#m9d1641b863" y="226.866104"/>
     <use style="fill:#008000;stroke:#008000;stroke-width:1.5;" x="503.371066" xlink:href="#m9d1641b863" y="222.305551"/>
     <use style="fill:#008000;stroke:#008000;stroke-width:1.5;" x="507.957406" xlink:href="#m9d1641b863" y="217.22206"/>
     <use style="fill:#008000;stroke:#008000;stroke-width:1.5;" x="512.543747" xlink:href="#m9d1641b863" y="211.63002"/>
     <use style="fill:#008000;stroke:#008000;stroke-width:1.5;" x="517.130087" xlink:href="#m9d1641b863" y="205.55529"/>
     <use style="fill:#008000;stroke:#008000;stroke-width:1.5;" x="521.716427" xlink:href="#m9d1641b863" y="199.03338"/>
     <use style="fill:#008000;stroke:#008000;stroke-width:1.5;" x="526.302768" xlink:href="#m9d1641b863" y="192.107533"/>
     <use style="fill:#008000;stroke:#008000;stroke-width:1.5;" x="530.889108" xlink:href="#m9d1641b863" y="184.826328"/>
     <use style="fill:#008000;stroke:#008000;stroke-width:1.5;" x="535.475449" xlink:href="#m9d1641b863" y="177.240609"/>
     <use style="fill:#008000;stroke:#008000;stroke-width:1.5;" x="540.061789" xlink:href="#m9d1641b863" y="169.401674"/>
     <use style="fill:#008000;stroke:#008000;stroke-width:1.5;" x="544.64813" xlink:href="#m9d1641b863" y="161.358612"/>
     <use style="fill:#008000;stroke:#008000;stroke-width:1.5;" x="549.23447" xlink:href="#m9d1641b863" y="153.156593"/>
     <use style="fill:#008000;stroke:#008000;stroke-width:1.5;" x="553.820811" xlink:href="#m9d1641b863" y="144.83539"/>
     <use style="fill:#008000;stroke:#008000;stroke-width:1.5;" x="558.407151" xlink:href="#m9d1641b863" y="136.428666"/>
     <use style="fill:#008000;stroke:#008000;stroke-width:1.5;" x="562.993491" xlink:href="#m9d1641b863" y="127.963579"/>
     <use style="fill:#008000;stroke:#008000;stroke-width:1.5;" x="567.579832" xlink:href="#m9d1641b863" y="119.460333"/>
     <use style="fill:#008000;stroke:#008000;stroke-width:1.5;" x="572.166172" xlink:href="#m9d1641b863" y="110.933725"/>
     <use style="fill:#008000;stroke:#008000;stroke-width:1.5;" x="576.752513" xlink:href="#m9d1641b863" y="102.392085"/>
     <use style="fill:#008000;stroke:#008000;stroke-width:1.5;" x="581.338853" xlink:href="#m9d1641b863" y="93.840065"/>
     <use style="fill:#008000;stroke:#008000;stroke-width:1.5;" x="585.925194" xlink:href="#m9d1641b863" y="85.277855"/>
     <use style="fill:#008000;stroke:#008000;stroke-width:1.5;" x="590.511534" xlink:href="#m9d1641b863" y="76.703295"/>
    </g>
   </g>
   <g id="line2d_26">
    <path clip-path="url(#p671fb8749c)" d="M 365.780852 250.671453 
L 370.367193 250.671453 
L 374.953533 250.671453 
L 379.539874 250.671453 
L 384.126214 250.671451 
L 388.712555 250.671441 
L 393.298895 250.671398 
L 397.885235 250.67124 
L 402.471576 250.670736 
L 407.057916 250.66932 
L 411.644257 250.665757 
L 416.230597 250.657611 
L 420.816938 250.640509 
L 425.403278 250.607219 
L 429.989619 250.546637 
L 434.575959 250.442825 
L 439.162299 250.27427 
L 443.74864 250.013529 
L 448.33498 249.62739 
L 452.921321 249.077603 
L 457.507661 248.322141 
L 462.094002 247.31691 
L 466.680342 246.017729 
L 471.266683 244.382387 
L 475.853023 242.3726 
L 480.439363 239.955691 
L 485.025704 237.105878 
L 489.612044 233.805093 
L 494.198385 230.043337 
L 498.784725 225.818568 
L 503.371066 221.136223 
L 507.957406 216.00842 
L 512.543747 210.452971 
L 517.130087 204.492261 
L 521.716427 198.152113 
L 526.302768 191.460668 
L 530.889108 184.447368 
L 535.475449 177.142054 
L 540.061789 169.5742 
L 544.64813 161.77231 
L 549.23447 153.763442 
L 553.820811 145.572888 
L 558.407151 137.223955 
L 562.993491 128.737856 
L 567.579832 120.133691 
L 572.166172 111.428477 
L 576.752513 102.637246 
L 581.338853 93.773158 
L 585.925194 84.847655 
L 590.511534 75.870608 
" style="fill:none;stroke:#4c72b0;stroke-linecap:round;stroke-width:1.5;"/>
   </g>
   <g id="patch_8">
    <path d="M 351.328011 262.472727 
L 351.328011 64.8 
" style="fill:none;stroke:#ffffff;stroke-linecap:square;stroke-linejoin:miter;stroke-width:1.25;"/>
   </g>
   <g id="patch_9">
    <path d="M 604.964375 262.472727 
L 604.964375 64.8 
" style="fill:none;stroke:#ffffff;stroke-linecap:square;stroke-linejoin:miter;stroke-width:1.25;"/>
   </g>
   <g id="patch_10">
    <path d="M 351.328011 262.472727 
L 604.964375 262.472727 
" style="fill:none;stroke:#ffffff;stroke-linecap:square;stroke-linejoin:miter;stroke-width:1.25;"/>
   </g>
   <g id="patch_11">
    <path d="M 351.328011 64.8 
L 604.964375 64.8 
" style="fill:none;stroke:#ffffff;stroke-linecap:square;stroke-linejoin:miter;stroke-width:1.25;"/>
   </g>
   <g id="text_9">
    <!-- differential -->
    <defs>
     <path d="M 6.640625 61.46875 
L 6.640625 71.578125 
L 15.4375 71.578125 
L 15.4375 61.46875 
z
M 6.640625 0 
L 6.640625 51.859375 
L 15.4375 51.859375 
L 15.4375 0 
z
" id="ArialMT-105"/>
     <path d="M 8.6875 0 
L 8.6875 45.015625 
L 0.921875 45.015625 
L 0.921875 51.859375 
L 8.6875 51.859375 
L 8.6875 57.375 
Q 8.6875 62.59375 9.625 65.140625 
Q 10.890625 68.5625 14.078125 70.671875 
Q 17.28125 72.796875 23.046875 72.796875 
Q 26.765625 72.796875 31.25 71.921875 
L 29.9375 64.265625 
Q 27.203125 64.75 24.75 64.75 
Q 20.75 64.75 19.09375 63.03125 
Q 17.4375 61.328125 17.4375 56.640625 
L 17.4375 51.859375 
L 27.546875 51.859375 
L 27.546875 45.015625 
L 17.4375 45.015625 
L 17.4375 0 
z
" id="ArialMT-102"/>
    </defs>
    <g style="fill:#262626;" transform="translate(450.466506 58.8)scale(0.12 -0.12)">
     <use xlink:href="#ArialMT-100"/>
     <use x="55.615234" xlink:href="#ArialMT-105"/>
     <use x="77.832031" xlink:href="#ArialMT-102"/>
     <use x="105.599609" xlink:href="#ArialMT-102"/>
     <use x="133.382812" xlink:href="#ArialMT-101"/>
     <use x="188.998047" xlink:href="#ArialMT-114"/>
     <use x="222.298828" xlink:href="#ArialMT-101"/>
     <use x="277.914062" xlink:href="#ArialMT-110"/>
     <use x="333.529297" xlink:href="#ArialMT-116"/>
     <use x="361.3125" xlink:href="#ArialMT-105"/>
     <use x="383.529297" xlink:href="#ArialMT-97"/>
     <use x="439.144531" xlink:href="#ArialMT-108"/>
    </g>
   </g>
  </g>
  <g id="axes_3">
   <g id="patch_12">
    <path d="M 46.964375 499.68 
L 300.600739 499.68 
L 300.600739 302.007273 
L 46.964375 302.007273 
z
" style="fill:#eaeaf2;"/>
   </g>
   <g id="matplotlib.axis_5">
    <g id="xtick_13">
     <g id="line2d_27">
      <path clip-path="url(#pe90e7f8a3d)" d="M 52.773728 499.68 
L 52.773728 302.007273 
" style="fill:none;stroke:#ffffff;stroke-linecap:round;"/>
     </g>
     <g id="text_10">
      <!-- 0.25 -->
      <g style="fill:#262626;" transform="translate(42.070213 517.053594)scale(0.11 -0.11)">
       <use xlink:href="#ArialMT-48"/>
       <use x="55.615234" xlink:href="#ArialMT-46"/>
       <use x="83.398438" xlink:href="#ArialMT-50"/>
       <use x="139.013672" xlink:href="#ArialMT-53"/>
      </g>
     </g>
    </g>
    <g id="xtick_14">
     <g id="line2d_28">
      <path clip-path="url(#pe90e7f8a3d)" d="M 95.991167 499.68 
L 95.991167 302.007273 
" style="fill:none;stroke:#ffffff;stroke-linecap:round;"/>
     </g>
     <g id="text_11">
      <!-- 0.50 -->
      <g style="fill:#262626;" transform="translate(85.287651 517.053594)scale(0.11 -0.11)">
       <use xlink:href="#ArialMT-48"/>
       <use x="55.615234" xlink:href="#ArialMT-46"/>
       <use x="83.398438" xlink:href="#ArialMT-53"/>
       <use x="139.013672" xlink:href="#ArialMT-48"/>
      </g>
     </g>
    </g>
    <g id="xtick_15">
     <g id="line2d_29">
      <path clip-path="url(#pe90e7f8a3d)" d="M 139.208606 499.68 
L 139.208606 302.007273 
" style="fill:none;stroke:#ffffff;stroke-linecap:round;"/>
     </g>
     <g id="text_12">
      <!-- 0.75 -->
      <defs>
       <path d="M 4.734375 62.203125 
L 4.734375 70.65625 
L 51.078125 70.65625 
L 51.078125 63.8125 
Q 44.234375 56.546875 37.515625 44.484375 
Q 30.8125 32.421875 27.15625 19.671875 
Q 24.515625 10.6875 23.78125 0 
L 14.75 0 
Q 14.890625 8.453125 18.0625 20.40625 
Q 21.234375 32.375 27.171875 43.484375 
Q 33.109375 54.59375 39.796875 62.203125 
z
" id="ArialMT-55"/>
      </defs>
      <g style="fill:#262626;" transform="translate(128.50509 517.053594)scale(0.11 -0.11)">
       <use xlink:href="#ArialMT-48"/>
       <use x="55.615234" xlink:href="#ArialMT-46"/>
       <use x="83.398438" xlink:href="#ArialMT-55"/>
       <use x="139.013672" xlink:href="#ArialMT-53"/>
      </g>
     </g>
    </g>
    <g id="xtick_16">
     <g id="line2d_30">
      <path clip-path="url(#pe90e7f8a3d)" d="M 182.426045 499.68 
L 182.426045 302.007273 
" style="fill:none;stroke:#ffffff;stroke-linecap:round;"/>
     </g>
     <g id="text_13">
      <!-- 1.00 -->
      <g style="fill:#262626;" transform="translate(171.722529 517.053594)scale(0.11 -0.11)">
       <use xlink:href="#ArialMT-49"/>
       <use x="55.615234" xlink:href="#ArialMT-46"/>
       <use x="83.398438" xlink:href="#ArialMT-48"/>
       <use x="139.013672" xlink:href="#ArialMT-48"/>
      </g>
     </g>
    </g>
    <g id="xtick_17">
     <g id="line2d_31">
      <path clip-path="url(#pe90e7f8a3d)" d="M 225.643483 499.68 
L 225.643483 302.007273 
" style="fill:none;stroke:#ffffff;stroke-linecap:round;"/>
     </g>
     <g id="text_14">
      <!-- 1.25 -->
      <g style="fill:#262626;" transform="translate(214.939968 517.053594)scale(0.11 -0.11)">
       <use xlink:href="#ArialMT-49"/>
       <use x="55.615234" xlink:href="#ArialMT-46"/>
       <use x="83.398438" xlink:href="#ArialMT-50"/>
       <use x="139.013672" xlink:href="#ArialMT-53"/>
      </g>
     </g>
    </g>
    <g id="xtick_18">
     <g id="line2d_32">
      <path clip-path="url(#pe90e7f8a3d)" d="M 268.860922 499.68 
L 268.860922 302.007273 
" style="fill:none;stroke:#ffffff;stroke-linecap:round;"/>
     </g>
     <g id="text_15">
      <!-- 1.50 -->
      <g style="fill:#262626;" transform="translate(258.157407 517.053594)scale(0.11 -0.11)">
       <use xlink:href="#ArialMT-49"/>
       <use x="55.615234" xlink:href="#ArialMT-46"/>
       <use x="83.398438" xlink:href="#ArialMT-53"/>
       <use x="139.013672" xlink:href="#ArialMT-48"/>
      </g>
     </g>
    </g>
   </g>
   <g id="matplotlib.axis_6">
    <g id="ytick_13">
     <g id="line2d_33">
      <path clip-path="url(#pe90e7f8a3d)" d="M 46.964375 490.694876 
L 300.600739 490.694876 
" style="fill:none;stroke:#ffffff;stroke-linecap:round;"/>
     </g>
     <g id="text_16">
      <!-- 0.0 -->
      <g style="fill:#262626;" transform="translate(22.174375 494.631673)scale(0.11 -0.11)">
       <use xlink:href="#ArialMT-48"/>
       <use x="55.615234" xlink:href="#ArialMT-46"/>
       <use x="83.398438" xlink:href="#ArialMT-48"/>
      </g>
     </g>
    </g>
    <g id="ytick_14">
     <g id="line2d_34">
      <path clip-path="url(#pe90e7f8a3d)" d="M 46.964375 460.90348 
L 300.600739 460.90348 
" style="fill:none;stroke:#ffffff;stroke-linecap:round;"/>
     </g>
     <g id="text_17">
      <!-- 0.2 -->
      <g style="fill:#262626;" transform="translate(22.174375 464.840277)scale(0.11 -0.11)">
       <use xlink:href="#ArialMT-48"/>
       <use x="55.615234" xlink:href="#ArialMT-46"/>
       <use x="83.398438" xlink:href="#ArialMT-50"/>
      </g>
     </g>
    </g>
    <g id="ytick_15">
     <g id="line2d_35">
      <path clip-path="url(#pe90e7f8a3d)" d="M 46.964375 431.112084 
L 300.600739 431.112084 
" style="fill:none;stroke:#ffffff;stroke-linecap:round;"/>
     </g>
     <g id="text_18">
      <!-- 0.4 -->
      <g style="fill:#262626;" transform="translate(22.174375 435.04888)scale(0.11 -0.11)">
       <use xlink:href="#ArialMT-48"/>
       <use x="55.615234" xlink:href="#ArialMT-46"/>
       <use x="83.398438" xlink:href="#ArialMT-52"/>
      </g>
     </g>
    </g>
    <g id="ytick_16">
     <g id="line2d_36">
      <path clip-path="url(#pe90e7f8a3d)" d="M 46.964375 401.320687 
L 300.600739 401.320687 
" style="fill:none;stroke:#ffffff;stroke-linecap:round;"/>
     </g>
     <g id="text_19">
      <!-- 0.6 -->
      <defs>
       <path d="M 49.75 54.046875 
L 41.015625 53.375 
Q 39.84375 58.546875 37.703125 60.890625 
Q 34.125 64.65625 28.90625 64.65625 
Q 24.703125 64.65625 21.53125 62.3125 
Q 17.390625 59.28125 14.984375 53.46875 
Q 12.59375 47.65625 12.5 36.921875 
Q 15.671875 41.75 20.265625 44.09375 
Q 24.859375 46.4375 29.890625 46.4375 
Q 38.671875 46.4375 44.84375 39.96875 
Q 51.03125 33.5 51.03125 23.25 
Q 51.03125 16.5 48.125 10.71875 
Q 45.21875 4.9375 40.140625 1.859375 
Q 35.0625 -1.21875 28.609375 -1.21875 
Q 17.625 -1.21875 10.6875 6.859375 
Q 3.765625 14.9375 3.765625 33.5 
Q 3.765625 54.25 11.421875 63.671875 
Q 18.109375 71.875 29.4375 71.875 
Q 37.890625 71.875 43.28125 67.140625 
Q 48.6875 62.40625 49.75 54.046875 
z
M 13.875 23.1875 
Q 13.875 18.65625 15.796875 14.5 
Q 17.71875 10.359375 21.1875 8.171875 
Q 24.65625 6 28.46875 6 
Q 34.03125 6 38.03125 10.484375 
Q 42.046875 14.984375 42.046875 22.703125 
Q 42.046875 30.125 38.078125 34.390625 
Q 34.125 38.671875 28.125 38.671875 
Q 22.171875 38.671875 18.015625 34.390625 
Q 13.875 30.125 13.875 23.1875 
z
" id="ArialMT-54"/>
      </defs>
      <g style="fill:#262626;" transform="translate(22.174375 405.257484)scale(0.11 -0.11)">
       <use xlink:href="#ArialMT-48"/>
       <use x="55.615234" xlink:href="#ArialMT-46"/>
       <use x="83.398438" xlink:href="#ArialMT-54"/>
      </g>
     </g>
    </g>
    <g id="ytick_17">
     <g id="line2d_37">
      <path clip-path="url(#pe90e7f8a3d)" d="M 46.964375 371.529291 
L 300.600739 371.529291 
" style="fill:none;stroke:#ffffff;stroke-linecap:round;"/>
     </g>
     <g id="text_20">
      <!-- 0.8 -->
      <defs>
       <path d="M 17.671875 38.8125 
Q 12.203125 40.828125 9.5625 44.53125 
Q 6.9375 48.25 6.9375 53.421875 
Q 6.9375 61.234375 12.546875 66.546875 
Q 18.171875 71.875 27.484375 71.875 
Q 36.859375 71.875 42.578125 66.421875 
Q 48.296875 60.984375 48.296875 53.171875 
Q 48.296875 48.1875 45.671875 44.5 
Q 43.0625 40.828125 37.75 38.8125 
Q 44.34375 36.671875 47.78125 31.875 
Q 51.21875 27.09375 51.21875 20.453125 
Q 51.21875 11.28125 44.71875 5.03125 
Q 38.234375 -1.21875 27.640625 -1.21875 
Q 17.046875 -1.21875 10.546875 5.046875 
Q 4.046875 11.328125 4.046875 20.703125 
Q 4.046875 27.6875 7.59375 32.390625 
Q 11.140625 37.109375 17.671875 38.8125 
z
M 15.921875 53.71875 
Q 15.921875 48.640625 19.1875 45.40625 
Q 22.46875 42.1875 27.6875 42.1875 
Q 32.765625 42.1875 36.015625 45.375 
Q 39.265625 48.578125 39.265625 53.21875 
Q 39.265625 58.0625 35.90625 61.359375 
Q 32.5625 64.65625 27.59375 64.65625 
Q 22.5625 64.65625 19.234375 61.421875 
Q 15.921875 58.203125 15.921875 53.71875 
z
M 13.09375 20.65625 
Q 13.09375 16.890625 14.875 13.375 
Q 16.65625 9.859375 20.171875 7.921875 
Q 23.6875 6 27.734375 6 
Q 34.03125 6 38.125 10.046875 
Q 42.234375 14.109375 42.234375 20.359375 
Q 42.234375 26.703125 38.015625 30.859375 
Q 33.796875 35.015625 27.4375 35.015625 
Q 21.234375 35.015625 17.15625 30.90625 
Q 13.09375 26.8125 13.09375 20.65625 
z
" id="ArialMT-56"/>
      </defs>
      <g style="fill:#262626;" transform="translate(22.174375 375.466088)scale(0.11 -0.11)">
       <use xlink:href="#ArialMT-48"/>
       <use x="55.615234" xlink:href="#ArialMT-46"/>
       <use x="83.398438" xlink:href="#ArialMT-56"/>
      </g>
     </g>
    </g>
    <g id="ytick_18">
     <g id="line2d_38">
      <path clip-path="url(#pe90e7f8a3d)" d="M 46.964375 341.737895 
L 300.600739 341.737895 
" style="fill:none;stroke:#ffffff;stroke-linecap:round;"/>
     </g>
     <g id="text_21">
      <!-- 1.0 -->
      <g style="fill:#262626;" transform="translate(22.174375 345.674692)scale(0.11 -0.11)">
       <use xlink:href="#ArialMT-49"/>
       <use x="55.615234" xlink:href="#ArialMT-46"/>
       <use x="83.398438" xlink:href="#ArialMT-48"/>
      </g>
     </g>
    </g>
    <g id="ytick_19">
     <g id="line2d_39">
      <path clip-path="url(#pe90e7f8a3d)" d="M 46.964375 311.946499 
L 300.600739 311.946499 
" style="fill:none;stroke:#ffffff;stroke-linecap:round;"/>
     </g>
     <g id="text_22">
      <!-- 1.2 -->
      <g style="fill:#262626;" transform="translate(22.174375 315.883296)scale(0.11 -0.11)">
       <use xlink:href="#ArialMT-49"/>
       <use x="55.615234" xlink:href="#ArialMT-46"/>
       <use x="83.398438" xlink:href="#ArialMT-50"/>
      </g>
     </g>
    </g>
    <g id="text_23">
     <!-- deltas -->
     <g style="fill:#262626;" transform="translate(15.789375 416.853324)rotate(-90)scale(0.12 -0.12)">
      <use xlink:href="#ArialMT-100"/>
      <use x="55.615234" xlink:href="#ArialMT-101"/>
      <use x="111.230469" xlink:href="#ArialMT-108"/>
      <use x="133.447266" xlink:href="#ArialMT-116"/>
      <use x="161.230469" xlink:href="#ArialMT-97"/>
      <use x="216.845703" xlink:href="#ArialMT-115"/>
     </g>
    </g>
   </g>
   <g id="PathCollection_3">
    <g clip-path="url(#pe90e7f8a3d)">
     <use style="fill:#ffa500;stroke:#ffa500;stroke-width:1.5;" x="61.417216" xlink:href="#mdcc6c97c00" y="469.12313"/>
     <use style="fill:#ffa500;stroke:#ffa500;stroke-width:1.5;" x="66.003556" xlink:href="#mdcc6c97c00" y="469.2618"/>
     <use style="fill:#ffa500;stroke:#ffa500;stroke-width:1.5;" x="70.589897" xlink:href="#mdcc6c97c00" y="469.402228"/>
     <use style="fill:#ffa500;stroke:#ffa500;stroke-width:1.5;" x="75.176237" xlink:href="#mdcc6c97c00" y="469.544281"/>
     <use style="fill:#ffa500;stroke:#ffa500;stroke-width:1.5;" x="79.762578" xlink:href="#mdcc6c97c00" y="469.687931"/>
     <use style="fill:#ffa500;stroke:#ffa500;stroke-width:1.5;" x="84.348918" xlink:href="#mdcc6c97c00" y="469.832923"/>
     <use style="fill:#ffa500;stroke:#ffa500;stroke-width:1.5;" x="88.935259" xlink:href="#mdcc6c97c00" y="469.979143"/>
     <use style="fill:#ffa500;stroke:#ffa500;stroke-width:1.5;" x="93.521599" xlink:href="#mdcc6c97c00" y="470.126231"/>
     <use style="fill:#ffa500;stroke:#ffa500;stroke-width:1.5;" x="98.107939" xlink:href="#mdcc6c97c00" y="470.273766"/>
     <use style="fill:#ffa500;stroke:#ffa500;stroke-width:1.5;" x="102.69428" xlink:href="#mdcc6c97c00" y="470.421154"/>
     <use style="fill:#ffa500;stroke:#ffa500;stroke-width:1.5;" x="107.28062" xlink:href="#mdcc6c97c00" y="470.567528"/>
     <use style="fill:#ffa500;stroke:#ffa500;stroke-width:1.5;" x="111.866961" xlink:href="#mdcc6c97c00" y="470.711732"/>
     <use style="fill:#ffa500;stroke:#ffa500;stroke-width:1.5;" x="116.453301" xlink:href="#mdcc6c97c00" y="470.852121"/>
     <use style="fill:#ffa500;stroke:#ffa500;stroke-width:1.5;" x="121.039642" xlink:href="#mdcc6c97c00" y="470.986472"/>
     <use style="fill:#ffa500;stroke:#ffa500;stroke-width:1.5;" x="125.625982" xlink:href="#mdcc6c97c00" y="471.111575"/>
     <use style="fill:#ffa500;stroke:#ffa500;stroke-width:1.5;" x="130.212323" xlink:href="#mdcc6c97c00" y="471.222983"/>
     <use style="fill:#ffa500;stroke:#ffa500;stroke-width:1.5;" x="134.798663" xlink:href="#mdcc6c97c00" y="471.314447"/>
     <use style="fill:#ffa500;stroke:#ffa500;stroke-width:1.5;" x="139.385003" xlink:href="#mdcc6c97c00" y="471.37709"/>
     <use style="fill:#ffa500;stroke:#ffa500;stroke-width:1.5;" x="143.971344" xlink:href="#mdcc6c97c00" y="471.398363"/>
     <use style="fill:#ffa500;stroke:#ffa500;stroke-width:1.5;" x="148.557684" xlink:href="#mdcc6c97c00" y="471.360351"/>
     <use style="fill:#ffa500;stroke:#ffa500;stroke-width:1.5;" x="153.144025" xlink:href="#mdcc6c97c00" y="471.23757"/>
     <use style="fill:#ffa500;stroke:#ffa500;stroke-width:1.5;" x="157.730365" xlink:href="#mdcc6c97c00" y="470.9938"/>
     <use style="fill:#ffa500;stroke:#ffa500;stroke-width:1.5;" x="162.316706" xlink:href="#mdcc6c97c00" y="470.577916"/>
     <use style="fill:#ffa500;stroke:#ffa500;stroke-width:1.5;" x="166.903046" xlink:href="#mdcc6c97c00" y="469.918674"/>
     <use style="fill:#ffa500;stroke:#ffa500;stroke-width:1.5;" x="171.489387" xlink:href="#mdcc6c97c00" y="468.91896"/>
     <use style="fill:#ffa500;stroke:#ffa500;stroke-width:1.5;" x="176.075727" xlink:href="#mdcc6c97c00" y="467.451186"/>
     <use style="fill:#ffa500;stroke:#ffa500;stroke-width:1.5;" x="180.662067" xlink:href="#mdcc6c97c00" y="465.356789"/>
     <use style="fill:#ffa500;stroke:#ffa500;stroke-width:1.5;" x="185.248408" xlink:href="#mdcc6c97c00" y="462.45646"/>
     <use style="fill:#ffa500;stroke:#ffa500;stroke-width:1.5;" x="189.834748" xlink:href="#mdcc6c97c00" y="458.57794"/>
     <use style="fill:#ffa500;stroke:#ffa500;stroke-width:1.5;" x="194.421089" xlink:href="#mdcc6c97c00" y="453.606006"/>
     <use style="fill:#ffa500;stroke:#ffa500;stroke-width:1.5;" x="199.007429" xlink:href="#mdcc6c97c00" y="447.54666"/>
     <use style="fill:#ffa500;stroke:#ffa500;stroke-width:1.5;" x="203.59377" xlink:href="#mdcc6c97c00" y="440.575721"/>
     <use style="fill:#ffa500;stroke:#ffa500;stroke-width:1.5;" x="208.18011" xlink:href="#mdcc6c97c00" y="433.032065"/>
     <use style="fill:#ffa500;stroke:#ffa500;stroke-width:1.5;" x="212.766451" xlink:href="#mdcc6c97c00" y="425.336901"/>
     <use style="fill:#ffa500;stroke:#ffa500;stroke-width:1.5;" x="217.352791" xlink:href="#mdcc6c97c00" y="417.871082"/>
     <use style="fill:#ffa500;stroke:#ffa500;stroke-width:1.5;" x="221.939131" xlink:href="#mdcc6c97c00" y="410.878129"/>
     <use style="fill:#ffa500;stroke:#ffa500;stroke-width:1.5;" x="226.525472" xlink:href="#mdcc6c97c00" y="404.432425"/>
     <use style="fill:#ffa500;stroke:#ffa500;stroke-width:1.5;" x="231.111812" xlink:href="#mdcc6c97c00" y="398.46871"/>
     <use style="fill:#ffa500;stroke:#ffa500;stroke-width:1.5;" x="235.698153" xlink:href="#mdcc6c97c00" y="392.83619"/>
     <use style="fill:#ffa500;stroke:#ffa500;stroke-width:1.5;" x="240.284493" xlink:href="#mdcc6c97c00" y="387.348255"/>
     <use style="fill:#ffa500;stroke:#ffa500;stroke-width:1.5;" x="244.870834" xlink:href="#mdcc6c97c00" y="381.81554"/>
     <use style="fill:#ffa500;stroke:#ffa500;stroke-width:1.5;" x="249.457174" xlink:href="#mdcc6c97c00" y="376.06615"/>
     <use style="fill:#ffa500;stroke:#ffa500;stroke-width:1.5;" x="254.043515" xlink:href="#mdcc6c97c00" y="369.955527"/>
     <use style="fill:#ffa500;stroke:#ffa500;stroke-width:1.5;" x="258.629855" xlink:href="#mdcc6c97c00" y="363.37394"/>
     <use style="fill:#ffa500;stroke:#ffa500;stroke-width:1.5;" x="263.216195" xlink:href="#mdcc6c97c00" y="356.25159"/>
     <use style="fill:#ffa500;stroke:#ffa500;stroke-width:1.5;" x="267.802536" xlink:href="#mdcc6c97c00" y="348.565146"/>
     <use style="fill:#ffa500;stroke:#ffa500;stroke-width:1.5;" x="272.388876" xlink:href="#mdcc6c97c00" y="340.340529"/>
     <use style="fill:#ffa500;stroke:#ffa500;stroke-width:1.5;" x="276.975217" xlink:href="#mdcc6c97c00" y="331.654581"/>
     <use style="fill:#ffa500;stroke:#ffa500;stroke-width:1.5;" x="281.561557" xlink:href="#mdcc6c97c00" y="322.631107"/>
     <use style="fill:#ffa500;stroke:#ffa500;stroke-width:1.5;" x="286.147898" xlink:href="#mdcc6c97c00" y="313.431715"/>
    </g>
   </g>
   <g id="line2d_40">
    <path clip-path="url(#pe90e7f8a3d)" d="M 61.417216 490.694876 
L 66.003556 490.694876 
L 70.589897 490.694873 
L 75.176237 490.694853 
L 79.762578 490.694747 
L 84.348918 490.694282 
L 88.935259 490.692588 
L 93.521599 490.687324 
L 98.107939 490.673046 
L 102.69428 490.638654 
L 107.28062 490.564012 
L 111.866961 490.416216 
L 116.453301 490.146408 
L 121.039642 489.6882 
L 125.625982 488.958664 
L 130.212323 487.86241 
L 134.798663 486.298601 
L 139.385003 484.170108 
L 143.971344 481.393497 
L 148.557684 477.908357 
L 153.144025 473.684601 
L 157.730365 468.726756 
L 162.316706 463.074802 
L 166.903046 456.801669 
L 171.489387 450.007924 
L 176.075727 442.814522 
L 180.662067 435.354555 
L 185.248408 427.764953 
L 189.834748 420.178885 
L 194.421089 412.719415 
L 199.007429 405.494739 
L 203.59377 398.595085 
L 208.18011 392.091202 
L 212.766451 386.03423 
L 217.352791 380.456677 
L 221.939131 375.374212 
L 226.525472 370.787951 
L 231.111812 366.687018 
L 235.698153 363.05113 
L 240.284493 359.853072 
L 244.870834 357.060941 
L 249.457174 354.640089 
L 254.043515 352.554743 
L 258.629855 350.769304 
L 263.216195 349.249326 
L 267.802536 347.962232 
L 272.388876 346.877781 
L 276.975217 345.968347 
L 281.561557 345.209033 
L 286.147898 344.577672 
" style="fill:none;stroke:#4c72b0;stroke-linecap:round;stroke-width:1.5;"/>
   </g>
   <g id="patch_13">
    <path d="M 46.964375 499.68 
L 46.964375 302.007273 
" style="fill:none;stroke:#ffffff;stroke-linecap:square;stroke-linejoin:miter;stroke-width:1.25;"/>
   </g>
   <g id="patch_14">
    <path d="M 300.600739 499.68 
L 300.600739 302.007273 
" style="fill:none;stroke:#ffffff;stroke-linecap:square;stroke-linejoin:miter;stroke-width:1.25;"/>
   </g>
   <g id="patch_15">
    <path d="M 46.964375 499.68 
L 300.600739 499.68 
" style="fill:none;stroke:#ffffff;stroke-linecap:square;stroke-linejoin:miter;stroke-width:1.25;"/>
   </g>
   <g id="patch_16">
    <path d="M 46.964375 302.007273 
L 300.600739 302.007273 
" style="fill:none;stroke:#ffffff;stroke-linecap:square;stroke-linejoin:miter;stroke-width:1.25;"/>
   </g>
   <g id="text_24">
    <!-- standard delta -->
    <defs>
     <path id="ArialMT-32"/>
    </defs>
    <g style="fill:#262626;" transform="translate(135.758494 296.007273)scale(0.12 -0.12)">
     <use xlink:href="#ArialMT-115"/>
     <use x="50" xlink:href="#ArialMT-116"/>
     <use x="77.783203" xlink:href="#ArialMT-97"/>
     <use x="133.398438" xlink:href="#ArialMT-110"/>
     <use x="189.013672" xlink:href="#ArialMT-100"/>
     <use x="244.628906" xlink:href="#ArialMT-97"/>
     <use x="300.244141" xlink:href="#ArialMT-114"/>
     <use x="333.544922" xlink:href="#ArialMT-100"/>
     <use x="389.160156" xlink:href="#ArialMT-32"/>
     <use x="416.943359" xlink:href="#ArialMT-100"/>
     <use x="472.558594" xlink:href="#ArialMT-101"/>
     <use x="528.173828" xlink:href="#ArialMT-108"/>
     <use x="550.390625" xlink:href="#ArialMT-116"/>
     <use x="578.173828" xlink:href="#ArialMT-97"/>
    </g>
   </g>
  </g>
  <g id="axes_4">
   <g id="patch_17">
    <path d="M 351.328011 499.68 
L 604.964375 499.68 
L 604.964375 302.007273 
L 351.328011 302.007273 
z
" style="fill:#eaeaf2;"/>
   </g>
   <g id="matplotlib.axis_7">
    <g id="xtick_19">
     <g id="line2d_41">
      <path clip-path="url(#pd2bcd03188)" d="M 357.137365 499.68 
L 357.137365 302.007273 
" style="fill:none;stroke:#ffffff;stroke-linecap:round;"/>
     </g>
     <g id="text_25">
      <!-- 0.25 -->
      <g style="fill:#262626;" transform="translate(346.433849 517.053594)scale(0.11 -0.11)">
       <use xlink:href="#ArialMT-48"/>
       <use x="55.615234" xlink:href="#ArialMT-46"/>
       <use x="83.398438" xlink:href="#ArialMT-50"/>
       <use x="139.013672" xlink:href="#ArialMT-53"/>
      </g>
     </g>
    </g>
    <g id="xtick_20">
     <g id="line2d_42">
      <path clip-path="url(#pd2bcd03188)" d="M 400.354803 499.68 
L 400.354803 302.007273 
" style="fill:none;stroke:#ffffff;stroke-linecap:round;"/>
     </g>
     <g id="text_26">
      <!-- 0.50 -->
      <g style="fill:#262626;" transform="translate(389.651288 517.053594)scale(0.11 -0.11)">
       <use xlink:href="#ArialMT-48"/>
       <use x="55.615234" xlink:href="#ArialMT-46"/>
       <use x="83.398438" xlink:href="#ArialMT-53"/>
       <use x="139.013672" xlink:href="#ArialMT-48"/>
      </g>
     </g>
    </g>
    <g id="xtick_21">
     <g id="line2d_43">
      <path clip-path="url(#pd2bcd03188)" d="M 443.572242 499.68 
L 443.572242 302.007273 
" style="fill:none;stroke:#ffffff;stroke-linecap:round;"/>
     </g>
     <g id="text_27">
      <!-- 0.75 -->
      <g style="fill:#262626;" transform="translate(432.868727 517.053594)scale(0.11 -0.11)">
       <use xlink:href="#ArialMT-48"/>
       <use x="55.615234" xlink:href="#ArialMT-46"/>
       <use x="83.398438" xlink:href="#ArialMT-55"/>
       <use x="139.013672" xlink:href="#ArialMT-53"/>
      </g>
     </g>
    </g>
    <g id="xtick_22">
     <g id="line2d_44">
      <path clip-path="url(#pd2bcd03188)" d="M 486.789681 499.68 
L 486.789681 302.007273 
" style="fill:none;stroke:#ffffff;stroke-linecap:round;"/>
     </g>
     <g id="text_28">
      <!-- 1.00 -->
      <g style="fill:#262626;" transform="translate(476.086165 517.053594)scale(0.11 -0.11)">
       <use xlink:href="#ArialMT-49"/>
       <use x="55.615234" xlink:href="#ArialMT-46"/>
       <use x="83.398438" xlink:href="#ArialMT-48"/>
       <use x="139.013672" xlink:href="#ArialMT-48"/>
      </g>
     </g>
    </g>
    <g id="xtick_23">
     <g id="line2d_45">
      <path clip-path="url(#pd2bcd03188)" d="M 530.00712 499.68 
L 530.00712 302.007273 
" style="fill:none;stroke:#ffffff;stroke-linecap:round;"/>
     </g>
     <g id="text_29">
      <!-- 1.25 -->
      <g style="fill:#262626;" transform="translate(519.303604 517.053594)scale(0.11 -0.11)">
       <use xlink:href="#ArialMT-49"/>
       <use x="55.615234" xlink:href="#ArialMT-46"/>
       <use x="83.398438" xlink:href="#ArialMT-50"/>
       <use x="139.013672" xlink:href="#ArialMT-53"/>
      </g>
     </g>
    </g>
    <g id="xtick_24">
     <g id="line2d_46">
      <path clip-path="url(#pd2bcd03188)" d="M 573.224559 499.68 
L 573.224559 302.007273 
" style="fill:none;stroke:#ffffff;stroke-linecap:round;"/>
     </g>
     <g id="text_30">
      <!-- 1.50 -->
      <g style="fill:#262626;" transform="translate(562.521043 517.053594)scale(0.11 -0.11)">
       <use xlink:href="#ArialMT-49"/>
       <use x="55.615234" xlink:href="#ArialMT-46"/>
       <use x="83.398438" xlink:href="#ArialMT-53"/>
       <use x="139.013672" xlink:href="#ArialMT-48"/>
      </g>
     </g>
    </g>
   </g>
   <g id="matplotlib.axis_8">
    <g id="ytick_20">
     <g id="line2d_47">
      <path clip-path="url(#pd2bcd03188)" d="M 351.328011 487.983588 
L 604.964375 487.983588 
" style="fill:none;stroke:#ffffff;stroke-linecap:round;"/>
     </g>
    </g>
    <g id="ytick_21">
     <g id="line2d_48">
      <path clip-path="url(#pd2bcd03188)" d="M 351.328011 451.897388 
L 604.964375 451.897388 
" style="fill:none;stroke:#ffffff;stroke-linecap:round;"/>
     </g>
    </g>
    <g id="ytick_22">
     <g id="line2d_49">
      <path clip-path="url(#pd2bcd03188)" d="M 351.328011 415.811187 
L 604.964375 415.811187 
" style="fill:none;stroke:#ffffff;stroke-linecap:round;"/>
     </g>
    </g>
    <g id="ytick_23">
     <g id="line2d_50">
      <path clip-path="url(#pd2bcd03188)" d="M 351.328011 379.724987 
L 604.964375 379.724987 
" style="fill:none;stroke:#ffffff;stroke-linecap:round;"/>
     </g>
    </g>
    <g id="ytick_24">
     <g id="line2d_51">
      <path clip-path="url(#pd2bcd03188)" d="M 351.328011 343.638787 
L 604.964375 343.638787 
" style="fill:none;stroke:#ffffff;stroke-linecap:round;"/>
     </g>
    </g>
    <g id="ytick_25">
     <g id="line2d_52">
      <path clip-path="url(#pd2bcd03188)" d="M 351.328011 307.552586 
L 604.964375 307.552586 
" style="fill:none;stroke:#ffffff;stroke-linecap:round;"/>
     </g>
    </g>
   </g>
   <g id="PathCollection_4">
    <g clip-path="url(#pd2bcd03188)">
     <use style="fill:#008000;stroke:#008000;stroke-width:1.5;" x="365.780852" xlink:href="#m9d1641b863" y="483.088868"/>
     <use style="fill:#008000;stroke:#008000;stroke-width:1.5;" x="370.367193" xlink:href="#m9d1641b863" y="483.710705"/>
     <use style="fill:#008000;stroke:#008000;stroke-width:1.5;" x="374.953533" xlink:href="#m9d1641b863" y="484.324139"/>
     <use style="fill:#008000;stroke:#008000;stroke-width:1.5;" x="379.539874" xlink:href="#m9d1641b863" y="484.92248"/>
     <use style="fill:#008000;stroke:#008000;stroke-width:1.5;" x="384.126214" xlink:href="#m9d1641b863" y="485.497518"/>
     <use style="fill:#008000;stroke:#008000;stroke-width:1.5;" x="388.712555" xlink:href="#m9d1641b863" y="486.039372"/>
     <use style="fill:#008000;stroke:#008000;stroke-width:1.5;" x="393.298895" xlink:href="#m9d1641b863" y="486.536152"/>
     <use style="fill:#008000;stroke:#008000;stroke-width:1.5;" x="397.885235" xlink:href="#m9d1641b863" y="486.973535"/>
     <use style="fill:#008000;stroke:#008000;stroke-width:1.5;" x="402.471576" xlink:href="#m9d1641b863" y="487.334357"/>
     <use style="fill:#008000;stroke:#008000;stroke-width:1.5;" x="407.057916" xlink:href="#m9d1641b863" y="487.598049"/>
     <use style="fill:#008000;stroke:#008000;stroke-width:1.5;" x="411.644257" xlink:href="#m9d1641b863" y="487.740139"/>
     <use style="fill:#008000;stroke:#008000;stroke-width:1.5;" x="416.230597" xlink:href="#m9d1641b863" y="487.731514"/>
     <use style="fill:#008000;stroke:#008000;stroke-width:1.5;" x="420.816938" xlink:href="#m9d1641b863" y="487.537832"/>
     <use style="fill:#008000;stroke:#008000;stroke-width:1.5;" x="425.403278" xlink:href="#m9d1641b863" y="487.118663"/>
     <use style="fill:#008000;stroke:#008000;stroke-width:1.5;" x="429.989619" xlink:href="#m9d1641b863" y="486.426995"/>
     <use style="fill:#008000;stroke:#008000;stroke-width:1.5;" x="434.575959" xlink:href="#m9d1641b863" y="485.408568"/>
     <use style="fill:#008000;stroke:#008000;stroke-width:1.5;" x="439.162299" xlink:href="#m9d1641b863" y="484.001769"/>
     <use style="fill:#008000;stroke:#008000;stroke-width:1.5;" x="443.74864" xlink:href="#m9d1641b863" y="482.137835"/>
     <use style="fill:#008000;stroke:#008000;stroke-width:1.5;" x="448.33498" xlink:href="#m9d1641b863" y="479.741806"/>
     <use style="fill:#008000;stroke:#008000;stroke-width:1.5;" x="452.921321" xlink:href="#m9d1641b863" y="476.734648"/>
     <use style="fill:#008000;stroke:#008000;stroke-width:1.5;" x="457.507661" xlink:href="#m9d1641b863" y="473.036692"/>
     <use style="fill:#008000;stroke:#008000;stroke-width:1.5;" x="462.094002" xlink:href="#m9d1641b863" y="468.572659"/>
     <use style="fill:#008000;stroke:#008000;stroke-width:1.5;" x="466.680342" xlink:href="#m9d1641b863" y="463.278554"/>
     <use style="fill:#008000;stroke:#008000;stroke-width:1.5;" x="471.266683" xlink:href="#m9d1641b863" y="457.11029"/>
     <use style="fill:#008000;stroke:#008000;stroke-width:1.5;" x="475.853023" xlink:href="#m9d1641b863" y="450.052829"/>
     <use style="fill:#008000;stroke:#008000;stroke-width:1.5;" x="480.439363" xlink:href="#m9d1641b863" y="442.129518"/>
     <use style="fill:#008000;stroke:#008000;stroke-width:1.5;" x="485.025704" xlink:href="#m9d1641b863" y="433.409317"/>
     <use style="fill:#008000;stroke:#008000;stroke-width:1.5;" x="489.612044" xlink:href="#m9d1641b863" y="424.010332"/>
     <use style="fill:#008000;stroke:#008000;stroke-width:1.5;" x="494.198385" xlink:href="#m9d1641b863" y="414.097994"/>
     <use style="fill:#008000;stroke:#008000;stroke-width:1.5;" x="498.784725" xlink:href="#m9d1641b863" y="403.877379"/>
     <use style="fill:#008000;stroke:#008000;stroke-width:1.5;" x="503.371066" xlink:href="#m9d1641b863" y="393.579924"/>
     <use style="fill:#008000;stroke:#008000;stroke-width:1.5;" x="507.957406" xlink:href="#m9d1641b863" y="383.447009"/>
     <use style="fill:#008000;stroke:#008000;stroke-width:1.5;" x="512.543747" xlink:href="#m9d1641b863" y="373.711976"/>
     <use style="fill:#008000;stroke:#008000;stroke-width:1.5;" x="517.130087" xlink:href="#m9d1641b863" y="364.583993"/>
     <use style="fill:#008000;stroke:#008000;stroke-width:1.5;" x="521.716427" xlink:href="#m9d1641b863" y="356.234986"/>
     <use style="fill:#008000;stroke:#008000;stroke-width:1.5;" x="526.302768" xlink:href="#m9d1641b863" y="348.791165"/>
     <use style="fill:#008000;stroke:#008000;stroke-width:1.5;" x="530.889108" xlink:href="#m9d1641b863" y="342.329143"/>
     <use style="fill:#008000;stroke:#008000;stroke-width:1.5;" x="535.475449" xlink:href="#m9d1641b863" y="336.875205"/>
     <use style="fill:#008000;stroke:#008000;stroke-width:1.5;" x="540.061789" xlink:href="#m9d1641b863" y="332.409261"/>
     <use style="fill:#008000;stroke:#008000;stroke-width:1.5;" x="544.64813" xlink:href="#m9d1641b863" y="328.871103"/>
     <use style="fill:#008000;stroke:#008000;stroke-width:1.5;" x="549.23447" xlink:href="#m9d1641b863" y="326.168545"/>
     <use style="fill:#008000;stroke:#008000;stroke-width:1.5;" x="553.820811" xlink:href="#m9d1641b863" y="324.187162"/>
     <use style="fill:#008000;stroke:#008000;stroke-width:1.5;" x="558.407151" xlink:href="#m9d1641b863" y="322.800016"/>
     <use style="fill:#008000;stroke:#008000;stroke-width:1.5;" x="562.993491" xlink:href="#m9d1641b863" y="321.877092"/>
     <use style="fill:#008000;stroke:#008000;stroke-width:1.5;" x="567.579832" xlink:href="#m9d1641b863" y="321.293128"/>
     <use style="fill:#008000;stroke:#008000;stroke-width:1.5;" x="572.166172" xlink:href="#m9d1641b863" y="320.934015"/>
     <use style="fill:#008000;stroke:#008000;stroke-width:1.5;" x="576.752513" xlink:href="#m9d1641b863" y="320.700225"/>
     <use style="fill:#008000;stroke:#008000;stroke-width:1.5;" x="581.338853" xlink:href="#m9d1641b863" y="320.509549"/>
     <use style="fill:#008000;stroke:#008000;stroke-width:1.5;" x="585.925194" xlink:href="#m9d1641b863" y="320.297214"/>
     <use style="fill:#008000;stroke:#008000;stroke-width:1.5;" x="590.511534" xlink:href="#m9d1641b863" y="320.015341"/>
    </g>
   </g>
   <g id="line2d_53">
    <path clip-path="url(#pd2bcd03188)" d="M 365.780852 487.983588 
L 370.367193 487.983588 
L 374.953533 487.983584 
L 379.539874 487.983561 
L 384.126214 487.983432 
L 388.712555 487.982868 
L 393.298895 487.980817 
L 397.885235 487.974441 
L 402.471576 487.957145 
L 407.057916 487.915487 
L 411.644257 487.825073 
L 416.230597 487.646049 
L 420.816938 487.319231 
L 425.403278 486.764205 
L 429.989619 485.880521 
L 434.575959 484.552633 
L 439.162299 482.658398 
L 443.74864 480.080162 
L 448.33498 476.716864 
L 452.921321 472.495328 
L 457.507661 467.37911 
L 462.094002 461.373691 
L 466.680342 454.527502 
L 471.266683 446.92888 
L 475.853023 438.699644 
L 480.439363 429.986304 
L 485.025704 420.950076 
L 489.612044 411.756822 
L 494.198385 402.567847 
L 498.784725 393.53222 
L 503.371066 384.780999 
L 507.957406 376.423476 
L 512.543747 368.545349 
L 517.130087 361.208561 
L 521.716427 354.452494 
L 526.302768 348.296124 
L 530.889108 342.740805 
L 535.475449 337.77336 
L 540.061789 333.369224 
L 544.64813 329.495429 
L 549.23447 326.113332 
L 553.820811 323.180962 
L 558.407151 320.654992 
L 562.993491 318.492296 
L 567.579832 316.651153 
L 572.166172 315.092101 
L 576.752513 313.77851 
L 581.338853 312.676916 
L 585.925194 311.757163 
L 590.511534 310.992397 
" style="fill:none;stroke:#4c72b0;stroke-linecap:round;stroke-width:1.5;"/>
   </g>
   <g id="patch_18">
    <path d="M 351.328011 499.68 
L 351.328011 302.007273 
" style="fill:none;stroke:#ffffff;stroke-linecap:square;stroke-linejoin:miter;stroke-width:1.25;"/>
   </g>
   <g id="patch_19">
    <path d="M 604.964375 499.68 
L 604.964375 302.007273 
" style="fill:none;stroke:#ffffff;stroke-linecap:square;stroke-linejoin:miter;stroke-width:1.25;"/>
   </g>
   <g id="patch_20">
    <path d="M 351.328011 499.68 
L 604.964375 499.68 
" style="fill:none;stroke:#ffffff;stroke-linecap:square;stroke-linejoin:miter;stroke-width:1.25;"/>
   </g>
   <g id="patch_21">
    <path d="M 351.328011 302.007273 
L 604.964375 302.007273 
" style="fill:none;stroke:#ffffff;stroke-linecap:square;stroke-linejoin:miter;stroke-width:1.25;"/>
   </g>
   <g id="text_31">
    <!-- differential delta -->
    <g style="fill:#262626;" transform="translate(435.789943 296.007273)scale(0.12 -0.12)">
     <use xlink:href="#ArialMT-100"/>
     <use x="55.615234" xlink:href="#ArialMT-105"/>
     <use x="77.832031" xlink:href="#ArialMT-102"/>
     <use x="105.599609" xlink:href="#ArialMT-102"/>
     <use x="133.382812" xlink:href="#ArialMT-101"/>
     <use x="188.998047" xlink:href="#ArialMT-114"/>
     <use x="222.298828" xlink:href="#ArialMT-101"/>
     <use x="277.914062" xlink:href="#ArialMT-110"/>
     <use x="333.529297" xlink:href="#ArialMT-116"/>
     <use x="361.3125" xlink:href="#ArialMT-105"/>
     <use x="383.529297" xlink:href="#ArialMT-97"/>
     <use x="439.144531" xlink:href="#ArialMT-108"/>
     <use x="461.361328" xlink:href="#ArialMT-32"/>
     <use x="489.144531" xlink:href="#ArialMT-100"/>
     <use x="544.759766" xlink:href="#ArialMT-101"/>
     <use x="600.375" xlink:href="#ArialMT-108"/>
     <use x="622.591797" xlink:href="#ArialMT-116"/>
     <use x="650.375" xlink:href="#ArialMT-97"/>
    </g>
   </g>
  </g>
  <g id="text_32">
   <!-- Black-Scholes approximation after 100 epochs -->
   <defs>
    <path d="M 7.328125 0 
L 7.328125 71.578125 
L 34.1875 71.578125 
Q 42.390625 71.578125 47.34375 69.40625 
Q 52.296875 67.234375 55.09375 62.71875 
Q 57.90625 58.203125 57.90625 53.265625 
Q 57.90625 48.6875 55.421875 44.625 
Q 52.9375 40.578125 47.90625 38.09375 
Q 54.390625 36.1875 57.875 31.59375 
Q 61.375 27 61.375 20.75 
Q 61.375 15.71875 59.25 11.390625 
Q 57.125 7.078125 54 4.734375 
Q 50.875 2.390625 46.15625 1.1875 
Q 41.453125 0 34.625 0 
z
M 16.796875 41.5 
L 32.28125 41.5 
Q 38.578125 41.5 41.3125 42.328125 
Q 44.921875 43.40625 46.75 45.890625 
Q 48.578125 48.390625 48.578125 52.15625 
Q 48.578125 55.71875 46.875 58.421875 
Q 45.171875 61.140625 41.984375 62.140625 
Q 38.8125 63.140625 31.109375 63.140625 
L 16.796875 63.140625 
z
M 16.796875 8.453125 
L 34.625 8.453125 
Q 39.203125 8.453125 41.0625 8.796875 
Q 44.34375 9.375 46.53125 10.734375 
Q 48.734375 12.109375 50.140625 14.71875 
Q 51.5625 17.328125 51.5625 20.75 
Q 51.5625 24.75 49.515625 27.703125 
Q 47.46875 30.671875 43.828125 31.859375 
Q 40.1875 33.0625 33.34375 33.0625 
L 16.796875 33.0625 
z
" id="ArialMT-66"/>
    <path d="M 40.4375 19 
L 49.078125 17.875 
Q 47.65625 8.9375 41.8125 3.875 
Q 35.984375 -1.171875 27.484375 -1.171875 
Q 16.84375 -1.171875 10.375 5.78125 
Q 3.90625 12.75 3.90625 25.734375 
Q 3.90625 34.125 6.6875 40.421875 
Q 9.46875 46.734375 15.15625 49.875 
Q 20.84375 53.03125 27.546875 53.03125 
Q 35.984375 53.03125 41.359375 48.75 
Q 46.734375 44.484375 48.25 36.625 
L 39.703125 35.296875 
Q 38.484375 40.53125 35.375 43.15625 
Q 32.28125 45.796875 27.875 45.796875 
Q 21.234375 45.796875 17.078125 41.03125 
Q 12.9375 36.28125 12.9375 25.984375 
Q 12.9375 15.53125 16.9375 10.796875 
Q 20.953125 6.0625 27.390625 6.0625 
Q 32.5625 6.0625 36.03125 9.234375 
Q 39.5 12.40625 40.4375 19 
z
" id="ArialMT-99"/>
    <path d="M 6.640625 0 
L 6.640625 71.578125 
L 15.4375 71.578125 
L 15.4375 30.765625 
L 36.234375 51.859375 
L 47.609375 51.859375 
L 27.78125 32.625 
L 49.609375 0 
L 38.765625 0 
L 21.625 26.515625 
L 15.4375 20.5625 
L 15.4375 0 
z
" id="ArialMT-107"/>
    <path d="M 3.171875 21.484375 
L 3.171875 30.328125 
L 30.171875 30.328125 
L 30.171875 21.484375 
z
" id="ArialMT-45"/>
    <path d="M 4.5 23 
L 13.421875 23.78125 
Q 14.0625 18.40625 16.375 14.96875 
Q 18.703125 11.53125 23.578125 9.40625 
Q 28.46875 7.28125 34.578125 7.28125 
Q 39.984375 7.28125 44.140625 8.890625 
Q 48.296875 10.5 50.3125 13.296875 
Q 52.34375 16.109375 52.34375 19.4375 
Q 52.34375 22.796875 50.390625 25.3125 
Q 48.4375 27.828125 43.953125 29.546875 
Q 41.0625 30.671875 31.203125 33.03125 
Q 21.34375 35.40625 17.390625 37.5 
Q 12.25 40.1875 9.734375 44.15625 
Q 7.234375 48.140625 7.234375 53.078125 
Q 7.234375 58.5 10.296875 63.203125 
Q 13.375 67.921875 19.28125 70.359375 
Q 25.203125 72.796875 32.421875 72.796875 
Q 40.375 72.796875 46.453125 70.234375 
Q 52.546875 67.671875 55.8125 62.6875 
Q 59.078125 57.71875 59.328125 51.421875 
L 50.25 50.734375 
Q 49.515625 57.515625 45.28125 60.984375 
Q 41.0625 64.453125 32.8125 64.453125 
Q 24.21875 64.453125 20.28125 61.296875 
Q 16.359375 58.15625 16.359375 53.71875 
Q 16.359375 49.859375 19.140625 47.359375 
Q 21.875 44.875 33.421875 42.265625 
Q 44.96875 39.65625 49.265625 37.703125 
Q 55.515625 34.8125 58.484375 30.390625 
Q 61.46875 25.984375 61.46875 20.21875 
Q 61.46875 14.5 58.203125 9.4375 
Q 54.9375 4.390625 48.796875 1.578125 
Q 42.671875 -1.21875 35.015625 -1.21875 
Q 25.296875 -1.21875 18.71875 1.609375 
Q 12.15625 4.4375 8.421875 10.125 
Q 4.6875 15.828125 4.5 23 
z
" id="ArialMT-83"/>
    <path d="M 6.59375 0 
L 6.59375 71.578125 
L 15.375 71.578125 
L 15.375 45.90625 
Q 21.53125 53.03125 30.90625 53.03125 
Q 36.671875 53.03125 40.921875 50.75 
Q 45.171875 48.484375 47 44.484375 
Q 48.828125 40.484375 48.828125 32.859375 
L 48.828125 0 
L 40.046875 0 
L 40.046875 32.859375 
Q 40.046875 39.453125 37.1875 42.453125 
Q 34.328125 45.453125 29.109375 45.453125 
Q 25.203125 45.453125 21.75 43.421875 
Q 18.3125 41.40625 16.84375 37.9375 
Q 15.375 34.46875 15.375 28.375 
L 15.375 0 
z
" id="ArialMT-104"/>
    <path d="M 3.328125 25.921875 
Q 3.328125 40.328125 11.328125 47.265625 
Q 18.015625 53.03125 27.640625 53.03125 
Q 38.328125 53.03125 45.109375 46.015625 
Q 51.90625 39.015625 51.90625 26.65625 
Q 51.90625 16.65625 48.90625 10.90625 
Q 45.90625 5.171875 40.15625 2 
Q 34.421875 -1.171875 27.640625 -1.171875 
Q 16.75 -1.171875 10.03125 5.8125 
Q 3.328125 12.796875 3.328125 25.921875 
z
M 12.359375 25.921875 
Q 12.359375 15.96875 16.703125 11.015625 
Q 21.046875 6.0625 27.640625 6.0625 
Q 34.1875 6.0625 38.53125 11.03125 
Q 42.875 16.015625 42.875 26.21875 
Q 42.875 35.84375 38.5 40.796875 
Q 34.125 45.75 27.640625 45.75 
Q 21.046875 45.75 16.703125 40.8125 
Q 12.359375 35.890625 12.359375 25.921875 
z
" id="ArialMT-111"/>
    <path d="M 6.59375 -19.875 
L 6.59375 51.859375 
L 14.59375 51.859375 
L 14.59375 45.125 
Q 17.4375 49.078125 21 51.046875 
Q 24.5625 53.03125 29.640625 53.03125 
Q 36.28125 53.03125 41.359375 49.609375 
Q 46.4375 46.1875 49.015625 39.953125 
Q 51.609375 33.734375 51.609375 26.3125 
Q 51.609375 18.359375 48.75 11.984375 
Q 45.90625 5.609375 40.453125 2.21875 
Q 35.015625 -1.171875 29 -1.171875 
Q 24.609375 -1.171875 21.109375 0.6875 
Q 17.625 2.546875 15.375 5.375 
L 15.375 -19.875 
z
M 14.546875 25.640625 
Q 14.546875 15.625 18.59375 10.84375 
Q 22.65625 6.0625 28.421875 6.0625 
Q 34.28125 6.0625 38.453125 11.015625 
Q 42.625 15.96875 42.625 26.375 
Q 42.625 36.28125 38.546875 41.203125 
Q 34.46875 46.140625 28.8125 46.140625 
Q 23.1875 46.140625 18.859375 40.890625 
Q 14.546875 35.640625 14.546875 25.640625 
z
" id="ArialMT-112"/>
    <path d="M 0.734375 0 
L 19.671875 26.953125 
L 2.15625 51.859375 
L 13.140625 51.859375 
L 21.09375 39.703125 
Q 23.34375 36.234375 24.703125 33.890625 
Q 26.859375 37.109375 28.65625 39.59375 
L 37.40625 51.859375 
L 47.90625 51.859375 
L 29.984375 27.4375 
L 49.265625 0 
L 38.484375 0 
L 27.828125 16.109375 
L 25 20.453125 
L 11.375 0 
z
" id="ArialMT-120"/>
    <path d="M 6.59375 0 
L 6.59375 51.859375 
L 14.453125 51.859375 
L 14.453125 44.578125 
Q 16.890625 48.390625 20.9375 50.703125 
Q 25 53.03125 30.171875 53.03125 
Q 35.9375 53.03125 39.625 50.640625 
Q 43.3125 48.25 44.828125 43.953125 
Q 50.984375 53.03125 60.84375 53.03125 
Q 68.5625 53.03125 72.703125 48.75 
Q 76.859375 44.484375 76.859375 35.59375 
L 76.859375 0 
L 68.109375 0 
L 68.109375 32.671875 
Q 68.109375 37.9375 67.25 40.25 
Q 66.40625 42.578125 64.15625 43.984375 
Q 61.921875 45.40625 58.890625 45.40625 
Q 53.421875 45.40625 49.796875 41.765625 
Q 46.1875 38.140625 46.1875 30.125 
L 46.1875 0 
L 37.40625 0 
L 37.40625 33.6875 
Q 37.40625 39.546875 35.25 42.46875 
Q 33.109375 45.40625 28.21875 45.40625 
Q 24.515625 45.40625 21.359375 43.453125 
Q 18.21875 41.5 16.796875 37.734375 
Q 15.375 33.984375 15.375 26.90625 
L 15.375 0 
z
" id="ArialMT-109"/>
   </defs>
   <g style="fill:#262626;" transform="translate(172.615625 17.391562)scale(0.14 -0.14)">
    <use xlink:href="#ArialMT-66"/>
    <use x="66.699219" xlink:href="#ArialMT-108"/>
    <use x="88.916016" xlink:href="#ArialMT-97"/>
    <use x="144.53125" xlink:href="#ArialMT-99"/>
    <use x="194.53125" xlink:href="#ArialMT-107"/>
    <use x="244.53125" xlink:href="#ArialMT-45"/>
    <use x="277.832031" xlink:href="#ArialMT-83"/>
    <use x="344.53125" xlink:href="#ArialMT-99"/>
    <use x="394.53125" xlink:href="#ArialMT-104"/>
    <use x="450.146484" xlink:href="#ArialMT-111"/>
    <use x="505.761719" xlink:href="#ArialMT-108"/>
    <use x="527.978516" xlink:href="#ArialMT-101"/>
    <use x="583.59375" xlink:href="#ArialMT-115"/>
    <use x="633.59375" xlink:href="#ArialMT-32"/>
    <use x="661.376953" xlink:href="#ArialMT-97"/>
    <use x="716.992188" xlink:href="#ArialMT-112"/>
    <use x="772.607422" xlink:href="#ArialMT-112"/>
    <use x="828.222656" xlink:href="#ArialMT-114"/>
    <use x="861.523438" xlink:href="#ArialMT-111"/>
    <use x="917.138672" xlink:href="#ArialMT-120"/>
    <use x="967.138672" xlink:href="#ArialMT-105"/>
    <use x="989.355469" xlink:href="#ArialMT-109"/>
    <use x="1072.65625" xlink:href="#ArialMT-97"/>
    <use x="1128.271484" xlink:href="#ArialMT-116"/>
    <use x="1156.054688" xlink:href="#ArialMT-105"/>
    <use x="1178.271484" xlink:href="#ArialMT-111"/>
    <use x="1233.886719" xlink:href="#ArialMT-110"/>
    <use x="1289.501953" xlink:href="#ArialMT-32"/>
    <use x="1317.285156" xlink:href="#ArialMT-97"/>
    <use x="1372.900391" xlink:href="#ArialMT-102"/>
    <use x="1400.683594" xlink:href="#ArialMT-116"/>
    <use x="1428.466797" xlink:href="#ArialMT-101"/>
    <use x="1484.082031" xlink:href="#ArialMT-114"/>
    <use x="1517.382812" xlink:href="#ArialMT-32"/>
    <use x="1545.166016" xlink:href="#ArialMT-49"/>
    <use x="1600.78125" xlink:href="#ArialMT-48"/>
    <use x="1656.396484" xlink:href="#ArialMT-48"/>
    <use x="1712.011719" xlink:href="#ArialMT-32"/>
    <use x="1739.794922" xlink:href="#ArialMT-101"/>
    <use x="1795.410156" xlink:href="#ArialMT-112"/>
    <use x="1851.025391" xlink:href="#ArialMT-111"/>
    <use x="1906.640625" xlink:href="#ArialMT-99"/>
    <use x="1956.640625" xlink:href="#ArialMT-104"/>
    <use x="2012.255859" xlink:href="#ArialMT-115"/>
   </g>
  </g>
 </g>
 <defs>
  <clipPath id="pac7374dcc7">
   <rect height="197.672727" width="253.636364" x="46.964375" y="64.8"/>
  </clipPath>
  <clipPath id="p671fb8749c">
   <rect height="197.672727" width="253.636364" x="351.328011" y="64.8"/>
  </clipPath>
  <clipPath id="pe90e7f8a3d">
   <rect height="197.672727" width="253.636364" x="46.964375" y="302.007273"/>
  </clipPath>
  <clipPath id="pd2bcd03188">
   <rect height="197.672727" width="253.636364" x="351.328011" y="302.007273"/>
  </clipPath>
 </defs>
</svg>
